<svg width="177" height="40" viewBox="0 0 177 40" fill="none" xmlns="http://www.w3.org/2000/svg">
<path d="M50 28V12H53.0168V25.2525H59.3237L59.1082 28H50Z" fill="white"/>
<path d="M78.208 28H74.9755L73.4402 23.798H67.3796L65.8443 28H62.7197L68.7264 12H72.2281L78.208 28ZM72.6322 21.3738L71.016 17.037C70.8903 16.6958 70.7826 16.3726 70.6928 16.0673C70.621 15.7621 70.5491 15.4658 70.4773 15.1785H70.3425C70.2708 15.4658 70.19 15.7621 70.1002 16.0673C70.0284 16.3726 69.9296 16.6958 69.8038 17.037L68.1338 21.3738H72.6322Z" fill="white"/>
<path d="M92.9933 12L87.1481 28H83.6196L77.7744 12H81.0337L84.8586 22.7474C84.9664 23.0887 85.0652 23.4298 85.1549 23.771C85.2447 24.1123 85.3254 24.4264 85.3974 24.7138H85.5051C85.5769 24.4264 85.6578 24.1123 85.7475 23.771C85.8373 23.4298 85.9361 23.0887 86.0438 22.7474L89.8956 12H92.9933Z" fill="white"/>
<path d="M106.519 12L106.277 14.6936H99.1389V18.6263H105.065V21.266H99.1389V25.3064H106.654V28H96.1221V12H106.519Z" fill="white"/>
<path d="M124.899 12V28H122.259L115.498 18.5454C115.265 18.2402 115.049 17.9259 114.851 17.6027C114.654 17.2795 114.474 16.9742 114.313 16.6869H114.205V28H111.296V12H114.259L120.697 20.9966C120.93 21.3199 121.146 21.6431 121.343 21.9663C121.559 22.2715 121.738 22.5679 121.881 22.8552H121.989V12H124.899Z" fill="white"/>
<path d="M144.158 20C144.158 21.5803 143.799 22.9719 143.08 24.1751C142.362 25.3782 141.339 26.321 140.01 27.0033C138.681 27.6678 137.101 28 135.27 28H129.855V12H135.27C137.101 12 138.681 12.3412 140.01 13.0236C141.339 13.688 142.362 14.6218 143.08 15.8249C143.799 17.0101 144.158 18.4018 144.158 20ZM141.007 20C141.007 18.8686 140.773 17.899 140.306 17.0909C139.839 16.2828 139.175 15.6633 138.314 15.2323C137.451 14.8013 136.437 14.5859 135.27 14.5859H132.873V25.4141H135.27C136.455 25.4141 137.469 25.1987 138.314 24.7677C139.175 24.3367 139.839 23.7171 140.306 22.909C140.773 22.083 141.007 21.1134 141.007 20Z" fill="white"/>
<path d="M158.921 12L158.677 14.6936H151.54V18.6263H157.466V21.266H151.54V25.3064H159.055V28H148.522V12H158.921Z" fill="white"/>
<path d="M175.201 17.2525C175.201 18.3659 174.887 19.3086 174.258 20.0808C173.648 20.835 172.875 21.3557 171.941 21.6431L176.251 28H172.723L168.952 22.3703H166.419V28H163.403V12H168.737C170.083 12 171.241 12.2065 172.211 12.6195C173.181 13.0146 173.917 13.6072 174.42 14.3973C174.94 15.1695 175.201 16.1212 175.201 17.2525ZM172.13 17.2525C172.13 16.6061 171.978 16.0853 171.672 15.6902C171.384 15.2772 170.981 14.9809 170.46 14.8014C169.94 14.6038 169.329 14.505 168.628 14.505H166.419V20H168.628C169.329 20 169.94 19.9012 170.46 19.7037C170.981 19.5062 171.384 19.2099 171.672 18.8148C171.978 18.4018 172.13 17.881 172.13 17.2525Z" fill="white"/>
<circle cx="20" cy="20" r="20" fill="#7E54E2"/>
<path d="M19.0277 29.7245C16.9534 28.7051 15.5942 25.6908 15.4813 22.7216C15.3684 19.7524 16.0671 17.7683 18.2433 16.2975C18.8964 15.8562 19.2853 14.9522 20.5384 15.3074C21.7914 15.6626 23.3128 17.2259 23.9605 19.8046C24.6082 22.3833 24.0823 24.911 23.3754 26.558C22.6685 28.205 21.102 30.744 19.0277 29.7245Z" fill="white"/>
<path d="M14.9302 25.7893C14.312 23.8218 14.2877 21.4507 14.5938 20.4647C14.6371 20.3504 14.5938 20.2397 14.4638 20.2168C14.2034 20.1462 13.7813 20.0548 13.0869 19.9812C12.041 19.8704 9.66763 19.5542 8.54245 20.8781C7.41727 22.2019 7.80815 23.4028 9.58223 26.7022C11.3563 30.0017 12.6359 30.9517 14.0585 30.9955C15.0115 31.0249 16.0454 30.3332 16.6242 29.8734C16.8996 29.6546 16.9401 29.2655 16.7464 28.9719C16.1993 28.1429 15.1574 26.5126 14.9302 25.7893Z" fill="white"/>
<path d="M7.7154 16.7933C7.83159 18.0915 8.28401 19.1476 8.44749 19.4941C8.47865 19.5601 8.55952 19.5838 8.62444 19.5504C8.93903 19.3885 9.87033 18.9738 11.2442 18.9207C12.9567 18.8545 13.9853 19.4126 14.663 19.3577C14.8722 19.3407 14.9598 18.6899 14.8624 18.3543C14.765 18.0186 13.6177 16.483 12.5605 15.5311C11.3465 14.438 10.085 13.1878 9.00796 13.3225C7.93093 13.4573 7.57281 15.2002 7.7154 16.7933Z" fill="white"/>
<path d="M20.1253 14.2013C19.2406 14.2444 18.6773 14.4773 18.3074 14.8463C18.2312 14.9224 18.0728 14.8542 18.089 14.7477C18.3224 13.2175 18.6865 11.3144 19.8506 10.7943C21.4688 10.0713 22.1564 10.3606 23.7859 9.74259C25.3622 9.14482 26.0227 10.3131 25.841 12.3058C25.7027 13.8231 24.7481 15.9543 24.1118 17.1981C24.0737 17.2725 23.9672 17.2697 23.9291 17.1953C23.0382 15.4555 21.2506 14.1465 20.1253 14.2013Z" fill="white"/>
<path d="M24.387 30.732C23.9815 30.7693 23.1746 30.5264 22.8267 30.0997C22.6489 29.8816 22.6872 29.572 22.8066 29.3171C23.1942 28.4903 24.0964 27.5679 24.4229 26.7495C25.0811 25.0996 25.3034 23.6477 25.2029 22.7189C25.0608 21.4062 25.9147 20.6916 27.746 19.9115C30.2367 18.8505 31.9235 21.2525 31.5556 22.6018C31.1414 24.1213 31.1003 25.8307 29.4613 27.787C28.1838 29.3118 25.5799 30.6222 24.387 30.732Z" fill="white"/>
<path d="M29.8858 16.0058C31.9293 16.0433 33.152 17.0627 31.291 19.3899C31.24 19.4536 31.1463 19.4656 31.0804 19.4175C30.4761 18.9761 29.4715 18.4198 28.0935 18.7669C27.1098 19.0147 25.9342 19.6917 25.2025 20.4997C25.1652 20.5408 25.0947 20.52 25.0872 20.465C25.0446 20.1528 24.9266 19.4011 24.712 18.8354C24.6587 18.6947 24.6546 18.5365 24.7238 18.4029C26.0124 15.915 28.6328 15.9827 29.8858 16.0058Z" fill="white"/>
<path d="M32.2864 10.9587C32.5219 12.7976 31.1979 13.988 30.1418 14.3344C29.0857 14.6808 27.5225 14.4813 27.4461 13.6822C27.3696 12.883 28.9408 11.2191 29.576 9.75044C30.2112 8.28182 32.0509 9.11978 32.2864 10.9587Z" fill="white"/>
</svg>
