<svg width="102" height="31" viewBox="0 0 102 31" fill="none" xmlns="http://www.w3.org/2000/svg">
<path fill-rule="evenodd" clip-rule="evenodd" d="M66.9134 11.8321C67.7561 11.8321 68.4175 12.0948 68.8995 12.6212C69.382 13.1467 69.6394 13.8967 69.6742 14.8699C69.6816 14.9645 69.6854 15.0918 69.6865 15.2523L69.6868 15.3526C69.6868 15.5611 69.683 15.7262 69.6742 15.8478C69.6394 16.7874 69.3786 17.5261 68.8932 18.065C68.4065 18.6039 67.746 18.8734 66.9134 18.8734C66.0706 18.8734 65.4408 18.5863 65.0246 18.0129V20.8943C65.0246 20.9902 64.994 21.0684 64.9331 21.1289C64.8726 21.1903 64.7945 21.2205 64.6988 21.2205H63.0188C62.9238 21.2205 62.8428 21.1903 62.7782 21.1289C62.7127 21.0684 62.6799 20.9902 62.6799 20.8943V12.2882C62.6799 12.1928 62.7127 12.1142 62.7782 12.054C62.8428 11.9927 62.9238 11.962 63.0188 11.962H64.5686C64.6639 11.962 64.7424 11.9927 64.8025 12.054C64.8642 12.1142 64.894 12.1928 64.894 12.2882V12.7578C65.3635 12.1402 66.0357 11.8321 66.9134 11.8321ZM41.7767 9.48482C42.5413 9.48482 43.2027 9.61724 43.7632 9.88252C44.323 10.1478 44.7534 10.4778 45.0519 10.873C45.3522 11.269 45.51 11.6579 45.5281 12.0405C45.5281 12.1187 45.5012 12.1859 45.4496 12.2427C45.3975 12.2994 45.3329 12.3276 45.2548 12.3276H43.4307C43.24 12.3276 43.0922 12.249 42.9885 12.0926C42.9365 11.9101 42.8009 11.7558 42.5846 11.6297C42.3675 11.5036 42.0983 11.4405 41.7767 11.4405C41.4122 11.4405 41.1304 11.5057 40.9301 11.636C40.7307 11.7668 40.6312 11.9576 40.6312 12.2099C40.6312 12.4625 40.7605 12.6597 41.0217 12.8035C41.282 12.9469 41.7687 13.0927 42.4796 13.2403C43.2959 13.3883 43.9455 13.5728 44.4267 13.7944C44.9091 14.0159 45.2652 14.3031 45.4954 14.655C45.7255 15.0073 45.8409 15.4524 45.8409 15.9915C45.8409 16.583 45.6713 17.0959 45.3329 17.5301C44.994 17.9652 44.5254 18.2977 43.9258 18.5277C43.3265 18.7581 42.6409 18.8733 41.8682 18.8733C41.0255 18.8733 40.3091 18.7514 39.7187 18.5084C39.1284 18.265 38.6807 17.9434 38.378 17.5432C38.0736 17.1438 37.9123 16.7086 37.8955 16.2395C37.8955 16.1612 37.9245 16.0961 37.9803 16.044C38.0366 15.9915 38.1042 15.9653 38.1819 15.9653H39.9148C40.0185 15.9653 40.1033 15.9826 40.168 16.0179C40.2339 16.0524 40.3049 16.1133 40.383 16.2004C40.4955 16.4089 40.6719 16.5808 40.9113 16.715C41.1494 16.8507 41.4685 16.9171 41.8682 16.9171C42.3364 16.9171 42.6971 16.8457 42.9491 16.7023C43.2006 16.559 43.3265 16.3614 43.3265 16.1091C43.3265 15.9263 43.2619 15.7766 43.1317 15.6593C43.0011 15.5416 42.7924 15.4373 42.5065 15.3465C42.2201 15.2549 41.8069 15.1531 41.269 15.0396C40.2175 14.8311 39.4323 14.5137 38.9121 14.0874C38.3906 13.662 38.1298 13.0532 38.1298 12.2624C38.1298 11.7231 38.2801 11.243 38.5791 10.8213C38.8794 10.4 39.3043 10.0717 39.8552 9.83711C40.4078 9.60169 41.0477 9.48482 41.7767 9.48482ZM90.6176 11.8321C91.3646 11.8321 91.9963 11.9817 92.5127 12.2819C93.0298 12.5816 93.4156 12.9945 93.6721 13.5204C93.9273 14.0468 94.0559 14.6442 94.0559 15.3138V15.6392C94.0559 15.7351 94.024 15.8154 93.9587 15.881C93.894 15.9457 93.8134 15.9785 93.7174 15.9785H89.5892V16.0567C89.5976 16.4481 89.6892 16.7634 89.863 17.0022C90.0356 17.2414 90.2838 17.3608 90.6046 17.3608C90.8136 17.3608 90.9801 17.3196 91.1061 17.2364C91.232 17.1544 91.352 17.0476 91.4639 16.9169C91.5425 16.8307 91.6052 16.7765 91.6525 16.7546C91.7011 16.7327 91.7771 16.7222 91.8804 16.7222H93.5875C93.6655 16.7222 93.7328 16.7458 93.7894 16.7937C93.8461 16.8416 93.8734 16.9 93.8734 16.9695C93.8734 17.196 93.7454 17.4605 93.4896 17.7653C93.233 18.0692 92.8599 18.3303 92.3694 18.5472C91.8784 18.7645 91.2993 18.8734 90.6315 18.8734C89.5712 18.8734 88.7381 18.5884 88.1297 18.0196C87.5221 17.45 87.2097 16.6222 87.1929 15.535V15.1305C87.2265 14.0968 87.5477 13.2879 88.1562 12.7052C88.7637 12.1234 89.5842 11.8321 90.6176 11.8321ZM101.661 9.48486C101.757 9.48486 101.838 9.51555 101.902 9.57608C101.967 9.63704 102 9.71482 102 9.81025V18.4172C102 18.513 101.967 18.5913 101.902 18.6518C101.838 18.7127 101.757 18.743 101.661 18.743H100.111C100.024 18.743 99.949 18.7107 99.883 18.6455C99.8191 18.5803 99.7851 18.5042 99.7851 18.4172V18.0128C99.3173 18.5862 98.6443 18.8733 97.7674 18.8733C96.9252 18.8733 96.2628 18.6081 95.7811 18.0779C95.2993 17.5478 95.0408 16.7915 95.0068 15.809L94.9928 15.3524L95.0068 14.8837C95.0408 13.9357 95.3013 13.1903 95.7877 12.6471C96.2728 12.104 96.9332 11.832 97.7674 11.832C98.549 11.832 99.1781 12.0842 99.6551 12.5879V9.81025C99.6551 9.71482 99.6885 9.63704 99.7524 9.57608C99.8191 9.51555 99.895 9.48486 99.9817 9.48486H101.661ZM48.9017 11.9619C48.997 11.9619 49.0781 11.9926 49.1423 12.054C49.207 12.1141 49.2402 12.1927 49.2402 12.2881V18.4172C49.2402 18.513 49.207 18.5913 49.1423 18.6518C49.0781 18.7127 48.997 18.7426 48.9017 18.7426H47.2738C47.1868 18.7426 47.1104 18.7107 47.0457 18.6455C46.9802 18.5803 46.9475 18.5042 46.9475 18.4172V12.2881C46.9475 12.1927 46.9802 12.1141 47.0457 12.054C47.1104 11.9926 47.1868 11.9619 47.2738 11.9619H48.9017ZM58.8514 11.832C59.5636 11.832 60.1435 12.0729 60.5907 12.5559C61.037 13.0381 61.2604 13.7575 61.2604 14.7135V18.4172C61.2604 18.5042 61.2311 18.5803 61.1698 18.6455C61.1089 18.7107 61.0308 18.7426 60.9354 18.7426H59.3339C59.2382 18.7426 59.158 18.7127 59.0921 18.6518C59.0274 18.5913 58.9946 18.513 58.9946 18.4172V14.8047C58.9946 14.4053 58.9098 14.1118 58.741 13.9248C58.5714 13.7381 58.3438 13.6444 58.0574 13.6444C57.7882 13.6444 57.5686 13.7381 57.3994 13.9248C57.2298 14.1118 57.145 14.4053 57.145 14.8047V18.4172C57.145 18.5042 57.1151 18.5803 57.0538 18.6455C56.9934 18.7107 56.9148 18.7426 56.8195 18.7426H55.218C55.1227 18.7426 55.0421 18.7127 54.9766 18.6518C54.9115 18.5913 54.8787 18.513 54.8787 18.4172V14.8047C54.8787 14.4053 54.7918 14.1118 54.6192 13.9248C54.4454 13.7381 54.2195 13.6444 53.9419 13.6444C53.6728 13.6444 53.451 13.7381 53.2772 13.9248C53.1038 14.1118 53.0169 14.4007 53.0169 14.7916V18.4172C53.0169 18.5042 52.9858 18.5803 52.9253 18.6455C52.8648 18.7107 52.7867 18.7426 52.691 18.7426H51.0505C50.9635 18.7426 50.8871 18.7107 50.8225 18.6455C50.757 18.5803 50.7242 18.5042 50.7242 18.4172V12.2881C50.7242 12.1927 50.757 12.1141 50.8225 12.054C50.8871 11.9926 50.9635 11.9619 51.0505 11.9619H52.5609C52.6561 11.9619 52.7347 11.9926 52.7947 12.054C52.8556 12.1141 52.8863 12.1927 52.8863 12.2881V12.7312C53.095 12.4794 53.3641 12.2667 53.6938 12.0926C54.0234 11.919 54.3979 11.832 54.8141 11.832C55.7689 11.832 56.4244 12.2057 56.78 12.9532C56.9892 12.6232 57.2797 12.3537 57.6538 12.1452C58.0267 11.9362 58.4261 11.832 58.8514 11.832ZM72.905 9.48473C73.0004 9.48473 73.0785 9.51542 73.1394 9.57596C73.1994 9.63692 73.2305 9.71511 73.2305 9.81055V18.4171C73.2305 18.5041 73.1994 18.5802 73.1394 18.6454C73.0785 18.7109 73.0004 18.7429 72.905 18.7429H71.2766C71.1818 18.7429 71.1007 18.7131 71.0365 18.6516C70.9705 18.5911 70.9378 18.5129 70.9378 18.4171V9.81055C70.9378 9.71511 70.9705 9.63692 71.0365 9.57596C71.1007 9.51542 71.1818 9.48473 71.2766 9.48473H72.905ZM76.6688 11.9619C76.764 11.9619 76.8447 11.9926 76.9094 12.054C76.974 12.1141 77.0072 12.1927 77.0072 12.2881V18.4172C77.0072 18.513 76.974 18.5913 76.9094 18.6518C76.8447 18.7127 76.764 18.7426 76.6688 18.7426H75.0408C74.9539 18.7426 74.8774 18.7107 74.8127 18.6455C74.7472 18.5803 74.7145 18.5042 74.7145 18.4172V12.2881C74.7145 12.1927 74.7472 12.1141 74.8127 12.054C74.8774 11.9926 74.9539 11.9619 75.0408 11.9619H76.6688ZM85.6435 9.09375C85.7384 9.09375 85.8161 9.1236 85.8774 9.18498C85.9379 9.24594 85.9686 9.32413 85.9686 9.41957V10.5412C85.9686 10.6282 85.9379 10.7039 85.8774 10.7691C85.8161 10.8347 85.7384 10.8666 85.6435 10.8666H82.2961C82.0172 10.8666 81.8199 10.9301 81.7023 11.0558C81.5856 11.1819 81.5277 11.3757 81.5277 11.6364V11.9618H85.6435C85.7384 11.9618 85.8161 11.9929 85.8774 12.0538C85.9379 12.1144 85.9686 12.193 85.9686 12.2884V18.4171C85.9686 18.5041 85.9379 18.5802 85.8774 18.6454C85.8161 18.7109 85.7384 18.7429 85.6435 18.7429H84.0529C83.9581 18.7429 83.8783 18.7131 83.8128 18.6516C83.7481 18.5911 83.7154 18.5129 83.7154 18.4171V13.7359H81.5277V18.4171C81.5277 18.5041 81.497 18.5802 81.4365 18.6454C81.3748 18.7109 81.2962 18.7429 81.201 18.7429H79.612C79.5167 18.7429 79.4361 18.7131 79.3714 18.6516C79.3059 18.5911 79.2745 18.5129 79.2745 18.4171V13.7359H78.2965C78.2016 13.7359 78.1205 13.7056 78.0563 13.6446C77.9904 13.5833 77.9588 13.5055 77.9588 13.4096V12.2884C77.9588 12.193 77.9904 12.1144 78.0563 12.0538C78.1205 11.9929 78.2016 11.9618 78.2965 11.9618H79.2745V11.5708C79.2745 10.7018 79.5251 10.0716 80.0285 9.68064C80.5325 9.28882 81.2526 9.09375 82.1911 9.09375H85.6435ZM98.5224 13.6448C98.1319 13.6448 97.8514 13.7595 97.6828 13.99C97.5136 14.2203 97.4156 14.5394 97.3889 14.948L97.3763 15.3524L97.3889 15.7569C97.4156 16.1655 97.5136 16.485 97.6828 16.715C97.8514 16.9458 98.1319 17.0614 98.5224 17.0614C98.8949 17.0614 99.1741 16.9416 99.3566 16.7024C99.5392 16.4632 99.6385 16.1613 99.6551 15.7964C99.6731 15.5526 99.6818 15.3873 99.6818 15.3003C99.6818 15.2049 99.6731 15.0443 99.6551 14.8186C99.6385 14.4792 99.5365 14.1985 99.35 13.9769C99.1627 13.7553 98.8869 13.6448 98.5224 13.6448ZM66.1575 13.6444C65.7843 13.6444 65.5067 13.7639 65.3244 14.003C65.1422 14.2418 65.0427 14.5446 65.0246 14.9094C65.0173 15.0037 65.0134 15.1338 65.0124 15.3006L65.012 15.4051C65.012 15.6136 65.0158 15.7746 65.0246 15.8873C65.0427 16.2265 65.1443 16.5065 65.3307 16.7281C65.5176 16.9501 65.7931 17.0611 66.1575 17.0611C66.5489 17.0611 66.8285 16.9459 66.9982 16.715C67.1674 16.4851 67.2652 16.1652 67.2904 15.757C67.2992 15.6703 67.3043 15.535 67.3043 15.3526C67.3043 15.1697 67.2992 15.0351 67.2904 14.9481C67.2652 14.5395 67.1674 14.22 66.9982 13.99C66.8285 13.7596 66.5489 13.6444 66.1575 13.6444ZM90.6176 13.3056C90.2876 13.3056 90.0336 13.4208 89.8563 13.6507C89.6783 13.8811 89.5892 14.2052 89.5892 14.6223V14.6484H91.6591V14.6223C91.6591 14.2052 91.5685 13.8811 91.3859 13.6507C91.2034 13.4208 90.9482 13.3056 90.6176 13.3056ZM48.9017 9.13256C48.997 9.13256 49.0781 9.16535 49.1423 9.23051C49.207 9.29567 49.2402 9.37597 49.2402 9.4714V10.6843C49.2402 10.7805 49.207 10.8604 49.1423 10.9256C49.0781 10.9907 48.997 11.0235 48.9017 11.0235H47.2738C47.1771 11.0235 47.0999 10.9907 47.0381 10.9256C46.9781 10.8604 46.9475 10.7805 46.9475 10.6843V9.4714C46.9475 9.37597 46.9802 9.29567 47.0457 9.23051C47.1104 9.16535 47.1868 9.13256 47.2738 9.13256H48.9017ZM76.6688 9.13256C76.764 9.13256 76.8447 9.16535 76.9094 9.23051C76.974 9.29567 77.0072 9.37597 77.0072 9.4714V10.6843C77.0072 10.7805 76.974 10.8604 76.9094 10.9256C76.8447 10.9907 76.764 11.0235 76.6688 11.0235H75.0408C74.9442 11.0235 74.8669 10.9907 74.8052 10.9256C74.7452 10.8604 74.7145 10.7805 74.7145 10.6843V9.4714C74.7145 9.37597 74.7472 9.29567 74.8127 9.23051C74.8774 9.16535 74.9539 9.13256 75.0408 9.13256H76.6688Z" fill="white"/>
<ellipse cx="15.1582" cy="15.1585" rx="15.1582" ry="15.1585" fill="#070906"/>
<path fill-rule="evenodd" clip-rule="evenodd" d="M21.5754 12.7908V18.2005L21.2378 18.5385L18.5359 21.2441L16.8475 22.9345C16.101 23.6814 14.8917 23.6814 14.1457 22.9345C13.3996 22.1875 13.3996 20.9763 14.1457 20.2294L15.834 18.5385L18.5359 15.8339L18.8736 15.4958L21.5754 12.7908ZM20.9002 12.1145L18.1983 14.8195L17.8606 15.1576L15.1588 17.8627L14.8211 18.2008H9.41739L12.4569 15.1576L15.1588 12.4525L15.4965 12.1145H20.9002ZM13.4701 7.3805C14.2161 6.63358 15.4259 6.63358 16.1719 7.3805C16.918 8.12743 16.918 9.33866 16.1719 10.0856L11.4436 14.8196L8.74219 17.5242V12.1145L9.07986 11.776L11.7812 9.07136L13.4701 7.3805Z" fill="#FFAD00"/>
</svg>
