<svg width="172" height="172" viewBox="0 0 172 172" fill="none" xmlns="http://www.w3.org/2000/svg">
<circle cx="86" cy="86" r="78" fill="url(#paint0_linear_70_795)" stroke="#060606" stroke-width="16"/>
<circle cx="86" cy="86" r="30" fill="white"/>
<path d="M82.5555 73.9795L71.536 93.0743C70.8213 94.3178 70.8213 95.8042 71.536 97.0405C72.2506 98.2839 73.5369 99.0272 74.9733 99.0272H78.6465C80.0615 99.0272 81.3764 98.2696 82.0838 97.0405L82.3411 96.5974C82.4054 96.7475 82.4769 96.8976 82.5627 97.0405C83.2773 98.2839 84.5636 99.0272 86 99.0272H89.6732C91.0881 99.0272 92.403 98.2696 93.1105 97.0405L93.3678 96.5974C93.4321 96.7475 93.5036 96.8976 93.5893 97.0405C94.304 98.2839 95.5903 99.0272 97.0267 99.0272C98.4631 99.0272 99.7494 98.2839 100.464 97.0405C101.179 95.797 101.179 94.3106 100.464 93.0743C99.7494 91.8309 98.4631 91.0877 97.0267 91.0877C96.8623 91.0877 96.698 91.0948 96.5336 91.1162L96.7909 90.6732C97.4983 89.4512 97.4983 87.929 96.7909 86.707L94.9543 83.5269C94.2396 82.2835 92.9533 81.5403 91.5169 81.5403C91.3525 81.5403 91.1882 81.5474 91.0238 81.5688L91.2811 81.1258C91.9886 79.9038 91.9886 78.3816 91.2811 77.1596L89.4445 73.9867C88.7299 72.7432 87.4435 72 86.0071 72C84.5708 72 83.2844 72.7432 82.5698 73.9867L82.5555 73.9795ZM97.0124 92.6598C97.8771 92.6598 98.656 93.1101 99.0848 93.8604C99.5136 94.6108 99.5207 95.504 99.0848 96.2544C98.6489 97.0048 97.8771 97.455 97.0124 97.455C96.1477 97.455 95.3687 97.0048 94.94 96.2544C94.5041 95.504 94.5041 94.6108 94.94 93.8604C95.3759 93.1101 96.1477 92.6598 97.0124 92.6598ZM91.5026 83.1053C92.3673 83.1053 93.1463 83.5555 93.575 84.3059L95.4116 87.4859C95.8404 88.222 95.8404 89.1439 95.4116 89.8799L91.7384 96.2473C91.3097 96.9833 90.5164 97.4478 89.666 97.4478H85.9929C85.1282 97.4478 84.3492 96.9976 83.9204 96.2473C83.4845 95.4969 83.4845 94.6036 83.9204 93.8533L89.4302 84.2987C89.8661 83.5484 90.6379 83.0981 91.5026 83.0981V83.1053ZM85.9929 73.565C86.8576 73.565 87.6365 74.0152 88.0653 74.7656L89.9019 77.9385C90.3306 78.6746 90.3306 79.5965 89.9019 80.3325L88.0653 83.5198L82.5555 93.0672L80.7189 96.2473C80.2901 96.9833 79.4969 97.4478 78.6465 97.4478H74.9733C74.1086 97.4478 73.3297 96.9976 72.9009 96.2473C72.465 95.4969 72.465 94.6036 72.9009 93.8533L83.9204 74.7585C84.3564 74.0081 85.1282 73.5579 85.9929 73.5579V73.565Z" fill="url(#paint1_linear_70_795)"/>
<path d="M78.6396 91.6447C78.7611 91.7162 78.8969 91.7519 79.0327 91.7519C79.3042 91.7519 79.5686 91.609 79.7116 91.3589L84.4352 83.1835C84.6496 82.8048 84.521 82.326 84.1494 82.1116C83.7706 81.8972 83.2918 82.0258 83.0775 82.3974L78.3538 90.5728C78.1394 90.9515 78.268 91.4303 78.6396 91.6447Z" fill="url(#paint2_linear_70_795)"/>
<path d="M88.5654 93.6172C88.6869 93.6887 88.8227 93.7244 88.9585 93.7244C89.23 93.7244 89.4944 93.5815 89.6373 93.3314L91.917 89.3867C92.1314 89.0079 92.0028 88.5291 91.6312 88.3147C91.2524 88.1003 90.7736 88.229 90.5592 88.6006L88.2796 92.5453C88.0652 92.924 88.1938 93.4028 88.5654 93.6172Z" fill="url(#paint3_linear_70_795)"/>
<path d="M91.1278 37.2551C90.0996 37.1346 89.2452 36.8083 88.5647 36.2763C87.8848 35.7395 87.3945 35.0469 87.094 34.1986C86.7982 33.3508 86.7126 32.3977 86.8374 31.3393C86.9622 30.2809 87.267 29.3736 87.7519 28.6172C88.2415 27.8614 88.8792 27.3034 89.6649 26.9432C90.4512 26.5782 91.3584 26.456 92.3866 26.5765C93.572 26.7154 94.5248 27.1277 95.2451 27.8136C95.9659 28.4947 96.4268 29.3546 96.6277 30.3934L94.8363 30.6671C94.7153 29.9744 94.4364 29.4125 93.9998 28.9812C93.5638 28.5452 92.9626 28.2823 92.1961 28.1925C91.5059 28.1116 90.9117 28.1984 90.4136 28.4528C89.9202 28.7077 89.5239 29.1015 89.2246 29.6342C88.9307 30.1627 88.7371 30.8017 88.644 31.551C88.5556 32.3008 88.5926 32.9692 88.7551 33.556C88.9229 34.1386 89.2195 34.6112 89.6449 34.9738C90.0703 35.3364 90.6281 35.5581 91.3183 35.639C92.0848 35.7288 92.7307 35.6121 93.2563 35.2887C93.7819 34.9654 94.1838 34.4832 94.462 33.8422L96.1409 34.5225C95.704 35.4865 95.0554 36.2188 94.1952 36.7195C93.3356 37.2154 92.3132 37.3939 91.1278 37.2551Z" fill="white"/>
<path d="M101.538 39.56C100.805 39.3062 100.221 38.9198 99.7879 38.4007C99.3546 37.8816 99.0869 37.2806 98.9846 36.5978C98.8884 35.912 98.9715 35.1921 99.2338 34.4382C99.5009 33.6707 99.889 33.0513 100.398 32.5799C100.907 32.1085 101.492 31.8051 102.153 31.6696C102.814 31.534 103.505 31.5908 104.225 31.8398C104.963 32.0952 105.549 32.4824 105.982 33.0015C106.415 33.5206 106.682 34.1238 106.783 34.8112C106.885 35.494 106.805 36.2124 106.543 36.9663C106.279 37.7248 105.891 38.342 105.381 38.8179C104.876 39.2908 104.293 39.5973 103.63 39.7373C102.969 39.8728 102.272 39.8137 101.538 39.56ZM102.071 38.0295C102.723 38.255 103.283 38.2059 103.751 37.8822C104.218 37.5584 104.572 37.0534 104.81 36.3672C105.057 35.6584 105.093 35.0384 104.917 34.5074C104.744 33.9718 104.335 33.5928 103.692 33.3703C103.253 33.2184 102.856 33.1924 102.502 33.2924C102.153 33.3894 101.85 33.5905 101.592 33.8956C101.335 34.1963 101.126 34.5768 100.966 35.0373C100.719 35.7461 100.683 36.3683 100.857 36.9039C101.037 37.4366 101.441 37.8118 102.071 38.0295Z" fill="white"/>
<path d="M112.263 44.3917L114.163 41.1811C114.287 40.9711 114.41 40.7301 114.532 40.4579C114.654 40.1857 114.731 39.9007 114.762 39.603C114.8 39.3036 114.759 39.0158 114.638 38.7397C114.522 38.466 114.286 38.2248 113.931 38.016C113.741 37.9043 113.535 37.8248 113.313 37.7773C113.091 37.7298 112.858 37.7373 112.615 37.7997C112.379 37.8605 112.138 37.9959 111.891 38.206C111.647 38.4119 111.404 38.7186 111.163 39.1261L110.5 38.2287C110.836 37.6607 111.25 37.2105 111.741 36.8782C112.237 36.5482 112.78 36.3737 113.37 36.3545C113.963 36.3312 114.573 36.504 115.2 36.873C115.696 37.1643 116.056 37.487 116.28 37.841C116.505 38.195 116.637 38.5554 116.676 38.9223C116.715 39.2892 116.694 39.6434 116.615 39.9849C116.535 40.3264 116.431 40.6341 116.302 40.908C116.18 41.1802 116.072 41.3966 115.977 41.5571L113.774 45.2802L112.263 44.3917ZM107.625 41.6643L111.569 34.9961L112.901 35.779L111.677 37.8474L111.857 37.953L109.136 42.5528L107.625 41.6643Z" fill="white"/>
<path d="M119.456 49.8741C119.003 49.6169 118.592 49.3238 118.224 48.995C117.857 48.6729 117.58 48.323 117.392 47.9453C117.207 47.564 117.156 47.1681 117.241 46.7575C117.322 46.3879 117.472 46.0669 117.691 45.7944C117.91 45.5219 118.161 45.2178 118.446 44.8821L122.806 39.7433L124.124 40.8543L119.829 45.9165C119.627 46.1537 119.453 46.3632 119.305 46.5451C119.16 46.73 119.075 46.9083 119.049 47.0801C118.995 47.4101 119.101 47.7098 119.369 47.9791C119.636 48.2485 119.978 48.5117 120.394 48.7686L119.456 49.8741ZM119.46 41.5121L120.337 40.4777L124.471 43.9636L123.593 44.998L119.46 41.5121Z" fill="white"/>
<path d="M122.58 53.3763C122.216 52.9507 121.989 52.5224 121.898 52.0914C121.81 51.6573 121.836 51.2492 121.975 50.8671C122.118 50.4886 122.351 50.1615 122.676 49.8856C122.961 49.6439 123.256 49.4743 123.564 49.3767C123.874 49.276 124.196 49.2542 124.528 49.3111C124.863 49.365 125.218 49.5034 125.591 49.7263C125.869 49.8977 126.175 50.1152 126.508 50.379C126.843 50.6464 127.195 50.9439 127.563 51.2716C127.938 51.5998 128.331 51.9412 128.741 52.2959L128.072 52.0545C128.483 51.711 128.707 51.3644 128.741 51.0146C128.776 50.6648 128.606 50.2699 128.229 49.8298C128.003 49.5642 127.721 49.3605 127.386 49.2185C127.051 49.0765 126.689 49.085 126.303 49.2441L125.654 47.7229C126.279 47.4438 126.916 47.3794 127.567 47.5295C128.221 47.6833 128.845 48.1076 129.439 48.8024C129.887 49.3262 130.194 49.8591 130.361 50.4013C130.532 50.9471 130.504 51.4822 130.279 52.0066C130.161 52.2887 130.002 52.5337 129.802 52.7414C129.605 52.9461 129.379 53.1569 129.124 53.3739L125.495 56.456L124.511 55.3047L125.792 54.2169L125.747 54.5845C125.093 54.6816 124.514 54.6371 124.009 54.4511C123.51 54.2656 123.034 53.9074 122.58 53.3763ZM123.855 52.7456C124.109 53.0439 124.38 53.2536 124.666 53.3747C124.952 53.4958 125.225 53.5531 125.484 53.5466C125.746 53.5437 125.963 53.5068 126.135 53.4358C126.362 53.3623 126.586 53.2378 126.808 53.0622C127.036 52.8872 127.217 52.7423 127.352 52.6277L127.577 53.1337C127.176 52.7899 126.831 52.4963 126.541 52.2529C126.251 52.0094 125.997 51.8045 125.779 51.6379C125.565 51.4683 125.366 51.327 125.181 51.214C124.996 51.1077 124.821 51.0328 124.658 50.9893C124.495 50.9458 124.341 50.9353 124.197 50.9576C124.055 50.9836 123.921 51.0509 123.793 51.1594C123.647 51.2833 123.549 51.4297 123.498 51.5985C123.45 51.7643 123.453 51.9441 123.505 52.1381C123.561 52.3358 123.677 52.5383 123.855 52.7456Z" fill="white"/>
<path d="M128.726 61.8323C128.328 61.1396 128.143 60.4606 128.171 59.7956C128.202 59.1282 128.411 58.5108 128.798 57.9435C129.187 57.3803 129.72 56.9033 130.396 56.5125C131.089 56.1229 131.778 55.909 132.462 55.8709C133.154 55.8345 133.793 55.9766 134.38 56.2971C134.971 56.6152 135.462 57.1145 135.852 57.7948C136.29 58.5581 136.466 59.3135 136.381 60.061C136.303 60.8102 135.977 61.4555 135.404 61.9968L134.142 60.7346C134.438 60.4121 134.608 60.0591 134.653 59.6756C134.702 59.2897 134.628 58.9246 134.43 58.5803C134.207 58.1903 133.929 57.9222 133.596 57.7759C133.268 57.6272 132.907 57.5852 132.514 57.6499C132.12 57.7146 131.717 57.8644 131.306 58.0992C130.665 58.4645 130.229 58.903 129.998 59.4146C129.767 59.9261 129.813 60.464 130.136 61.0282C130.365 61.4265 130.636 61.6875 130.95 61.8113C131.266 61.9392 131.63 61.9628 132.042 61.8821L132.577 63.6086C131.771 63.7925 131.035 63.7308 130.367 63.4234C129.704 63.1135 129.156 62.5832 128.726 61.8323Z" fill="white"/>
<path d="M133.192 71.2483C132.924 70.802 132.711 70.3456 132.552 69.8791C132.392 69.4187 132.322 68.978 132.345 68.5569C132.372 68.1342 132.523 67.7648 132.799 67.4487C133.052 67.1667 133.341 66.9606 133.666 66.8304C133.991 66.7003 134.36 66.5588 134.773 66.4061L141.104 64.0674L141.703 65.6806L135.467 67.9843C135.175 68.0923 134.92 68.1891 134.701 68.275C134.484 68.3653 134.322 68.4788 134.214 68.6154C134.005 68.8763 133.95 69.1896 134.05 69.5552C134.15 69.9208 134.318 70.3175 134.554 70.7452L133.192 71.2483ZM137.318 63.9679L138.592 63.4972L140.473 68.5584L139.199 69.0292L137.318 63.9679Z" fill="white"/>
<path d="M135.111 81.8019C135.04 80.9831 135.144 80.2474 135.424 79.5948C135.705 78.947 136.133 78.4207 136.709 78.016C137.285 77.6161 137.981 77.3808 138.798 77.3102L145.266 76.7512L145.432 78.4925L138.992 79.049C138.606 79.0824 138.265 79.1766 137.971 79.3316C137.677 79.4913 137.432 79.6923 137.236 79.9346C137.046 80.1766 136.908 80.4475 136.824 80.7474C136.739 81.0473 136.71 81.352 136.737 81.6614C136.765 81.9804 136.846 82.278 136.981 82.5541C137.12 82.8346 137.305 83.0777 137.535 83.2833C137.769 83.4885 138.045 83.6421 138.361 83.7443C138.678 83.8464 139.028 83.8809 139.41 83.8479L145.849 83.2914L146.001 85.0339L139.518 85.5941C138.702 85.6647 137.975 85.55 137.338 85.2501C136.701 84.955 136.188 84.5101 135.8 83.9153C135.412 83.3253 135.182 82.6208 135.111 81.8019Z" fill="white"/>
<path d="M135.027 92.1105C135.139 91.1613 135.445 90.4153 135.943 89.8724C136.442 89.3296 137.087 89.0397 137.878 89.0028L137.942 90.7859C137.55 90.8313 137.227 90.9954 136.971 91.2781C136.716 91.5608 136.56 91.9371 136.505 92.4069C136.456 92.8198 136.499 93.1473 136.635 93.3894C136.774 93.6368 136.987 93.7773 137.273 93.8108C137.449 93.8315 137.594 93.8053 137.709 93.7322C137.828 93.6644 137.954 93.4964 138.087 93.2282C138.22 92.9599 138.397 92.5452 138.618 91.9842C138.866 91.3589 139.11 90.8679 139.35 90.5112C139.595 90.155 139.863 89.9098 140.154 89.7756C140.444 89.6414 140.783 89.597 141.168 89.6423C141.649 89.6988 142.053 89.8739 142.38 90.1674C142.708 90.4609 142.94 90.8442 143.077 91.3175C143.219 91.7913 143.253 92.3343 143.181 92.9465C143.11 93.5445 142.955 94.0627 142.715 94.5012C142.474 94.9445 142.166 95.2883 141.789 95.5328C141.413 95.7772 140.99 95.9055 140.52 95.9177L140.413 94.1296C140.747 94.1255 141.024 94.0065 141.244 93.7726C141.465 93.5434 141.612 93.2191 141.685 92.7995C141.757 92.3989 141.733 92.0665 141.615 91.8024C141.501 91.5388 141.314 91.3917 141.052 91.3609C140.904 91.3435 140.772 91.3785 140.656 91.4659C140.539 91.5532 140.411 91.7402 140.271 92.0269C140.13 92.3183 139.948 92.7541 139.725 93.3341C139.496 93.9279 139.257 94.3954 139.009 94.7368C138.766 95.0835 138.494 95.321 138.194 95.4493C137.893 95.5824 137.543 95.6254 137.143 95.5784C136.367 95.4872 135.791 95.1332 135.416 94.5164C135.039 93.9043 134.91 93.1023 135.027 92.1105Z" fill="white"/>
<path d="M137.679 104.843L138.962 104.004L139.764 105.468L140.756 104.104L141.95 105.066L140.795 106.291L142.419 106.794L141.869 108.227L140.323 107.523L140.366 109.197L138.834 109.12L139.004 107.45L137.43 108.002L137.035 106.524L138.672 106.188L137.679 104.843Z" fill="white"/>
<path d="M125.684 115.958C126.303 115.13 127.013 114.555 127.816 114.234C128.622 113.915 129.469 113.838 130.356 114.002C131.24 114.17 132.111 114.573 132.968 115.21C133.825 115.846 134.461 116.563 134.876 117.36C135.288 118.16 135.454 118.99 135.374 119.849C135.298 120.71 134.951 121.554 134.332 122.382C133.619 123.336 132.785 123.953 131.829 124.232C130.877 124.514 129.899 124.482 128.896 124.137L129.554 122.453C130.216 122.695 130.844 122.735 131.437 122.573C132.033 122.415 132.562 122.027 133.023 121.41C133.439 120.854 133.66 120.298 133.688 119.741C133.713 119.187 133.569 118.648 133.256 118.123C132.944 117.605 132.486 117.119 131.881 116.664C131.274 116.213 130.675 115.911 130.084 115.758C129.494 115.611 128.935 115.631 128.407 115.817C127.88 116.003 127.408 116.374 126.993 116.93C126.532 117.547 126.311 118.163 126.329 118.778C126.347 119.394 126.565 119.982 126.983 120.543L125.553 121.652C124.934 120.793 124.621 119.867 124.616 118.874C124.615 117.884 124.971 116.912 125.684 115.958Z" fill="white"/>
<path d="M118.477 123.795C119.063 123.287 119.689 122.975 120.357 122.859C121.024 122.743 121.68 122.811 122.325 123.063C122.969 123.321 123.554 123.751 124.079 124.354C124.614 124.967 124.959 125.611 125.116 126.286C125.272 126.961 125.245 127.617 125.033 128.256C124.822 128.895 124.429 129.464 123.854 129.963C123.264 130.474 122.635 130.787 121.968 130.903C121.301 131.019 120.643 130.95 119.995 130.694C119.35 130.443 118.765 130.016 118.24 129.414C117.712 128.808 117.368 128.165 117.209 127.487C117.048 126.815 117.072 126.158 117.281 125.516C117.492 124.877 117.891 124.303 118.477 123.795ZM119.543 125.018C119.022 125.469 118.786 125.978 118.834 126.544C118.883 127.109 119.146 127.666 119.624 128.214C120.118 128.781 120.639 129.12 121.188 129.233C121.741 129.35 122.274 129.185 122.788 128.74C123.139 128.436 123.359 128.106 123.448 127.75C123.537 127.4 123.514 127.038 123.377 126.662C123.243 126.291 123.016 125.921 122.695 125.553C122.202 124.987 121.679 124.645 121.126 124.529C120.573 124.419 120.045 124.582 119.543 125.018Z" fill="white"/>
<path d="M108.929 130.646L110.78 133.884C110.901 134.096 111.05 134.322 111.226 134.563C111.402 134.804 111.612 135.012 111.856 135.187C112.097 135.369 112.368 135.476 112.669 135.509C112.965 135.544 113.292 135.46 113.65 135.257C113.841 135.148 114.013 135.009 114.165 134.84C114.317 134.671 114.426 134.467 114.492 134.225C114.556 133.991 114.559 133.714 114.498 133.397C114.44 133.083 114.294 132.721 114.059 132.31L115.169 132.182C115.497 132.755 115.683 133.337 115.728 133.927C115.769 134.52 115.652 135.076 115.375 135.596C115.101 136.121 114.648 136.563 114.015 136.922C113.515 137.206 113.055 137.357 112.635 137.376C112.216 137.394 111.836 137.329 111.498 137.181C111.159 137.032 110.861 136.839 110.603 136.6C110.345 136.362 110.129 136.119 109.955 135.871C109.778 135.63 109.644 135.429 109.551 135.267L107.405 131.512L108.929 130.646ZM113.607 127.987L117.452 134.713L116.109 135.476L114.917 133.39L114.735 133.493L112.083 128.853L113.607 127.987Z" fill="white"/>
<path d="M100.586 134.17C101.035 133.906 101.494 133.697 101.964 133.543C102.427 133.386 102.869 133.32 103.291 133.346C103.715 133.376 104.084 133.529 104.399 133.807C104.68 134.061 104.885 134.351 105.013 134.676C105.141 135 105.28 135.369 105.431 135.783L107.73 142.111L106.107 142.697L103.843 136.463C103.736 136.171 103.641 135.916 103.557 135.697C103.468 135.48 103.355 135.318 103.219 135.209C102.959 134.998 102.645 134.941 102.277 135.038C101.91 135.135 101.511 135.3 101.08 135.532L100.586 134.17ZM107.857 138.337L108.32 139.611L103.23 141.449L102.767 140.175L107.857 138.337Z" fill="white"/>
<path d="M95.9739 135.113C96.5255 135.012 97.0112 135.029 97.4312 135.166C97.8521 135.308 98.1937 135.534 98.4559 135.845C98.7133 136.158 98.8807 136.523 98.9579 136.941C99.0256 137.308 99.0251 137.648 98.9564 137.962C98.8885 138.281 98.7468 138.569 98.5313 138.827C98.3166 139.09 98.0192 139.327 97.639 139.538C97.3508 139.693 97.009 139.848 96.6137 140.003C96.2136 140.159 95.7792 140.314 95.3106 140.468C94.8381 140.628 94.3452 140.796 93.832 140.973L94.3763 140.515C94.4688 141.043 94.6582 141.409 94.9446 141.614C95.231 141.819 95.6594 141.869 96.2298 141.764C96.5739 141.701 96.8915 141.56 97.1825 141.341C97.4736 141.123 97.6467 140.807 97.702 140.393L99.3474 140.594C99.2777 141.273 99.0149 141.855 98.559 142.342C98.0984 142.83 97.4179 143.157 96.5175 143.322C95.8387 143.447 95.222 143.446 94.6674 143.319C94.1081 143.193 93.6571 142.902 93.3144 142.445C93.1282 142.202 92.9949 141.942 92.9146 141.666C92.8351 141.394 92.765 141.093 92.7042 140.764L91.8412 136.09L93.3331 135.816L93.6377 137.466L93.3408 137.243C93.5834 136.63 93.9118 136.152 94.326 135.809C94.7364 135.471 95.2857 135.239 95.9739 135.113ZM95.8845 136.529C95.4979 136.6 95.1805 136.728 94.9323 136.915C94.684 137.101 94.498 137.308 94.3742 137.535C94.2457 137.763 94.1692 137.968 94.1447 138.153C94.0951 138.385 94.0911 138.641 94.1329 138.92C94.1708 139.205 94.2058 139.434 94.238 139.608L93.6861 139.549C94.1851 139.375 94.6129 139.223 94.9693 139.095C95.3257 138.966 95.6307 138.849 95.8842 138.745C96.1387 138.644 96.3611 138.543 96.5517 138.44C96.7367 138.333 96.8888 138.22 97.0082 138.101C97.1275 137.982 97.2136 137.854 97.2665 137.718C97.3146 137.583 97.3235 137.433 97.2931 137.269C97.2584 137.081 97.1805 136.923 97.0593 136.794C96.939 136.671 96.7814 136.583 96.5867 136.531C96.3872 136.48 96.1532 136.479 95.8845 136.529Z" fill="white"/>
<path d="M85.5118 136.18C86.3123 136.184 86.9946 136.363 87.5587 136.719C88.1229 137.08 88.5547 137.569 88.8542 138.187C89.1489 138.804 89.297 139.502 89.2987 140.281C89.2907 141.075 89.1321 141.777 88.8229 142.387C88.5088 143.002 88.0659 143.483 87.4941 143.83C86.9223 144.181 86.2434 144.355 85.4573 144.352C84.5754 144.348 83.831 144.123 83.224 143.676C82.6123 143.234 82.2145 142.63 82.0307 141.865L83.758 141.406C83.8906 141.822 84.1122 142.146 84.4228 142.376C84.7334 142.612 85.0876 142.73 85.4854 142.732C85.936 142.734 86.3079 142.628 86.6011 142.414C86.8944 142.205 87.1112 141.914 87.2517 141.542C87.3922 141.17 87.4634 140.747 87.4653 140.274C87.4683 139.538 87.3053 138.943 86.9764 138.487C86.6475 138.032 86.1572 137.803 85.5053 137.8C85.0452 137.799 84.6829 137.902 84.4184 138.111C84.1491 138.321 83.9466 138.623 83.8108 139.019L82.0437 138.618C82.2866 137.831 82.7084 137.225 83.3093 136.802C83.9101 136.384 84.6443 136.177 85.5118 136.18Z" fill="white"/>
<path d="M75.0822 135.347C75.6039 135.338 76.1069 135.382 76.5913 135.478C77.0718 135.569 77.4895 135.729 77.8444 135.958C78.1985 136.192 78.4441 136.507 78.5811 136.903C78.7001 137.263 78.7352 137.615 78.6864 137.961C78.6376 138.306 78.5765 138.696 78.5031 139.129L77.379 145.766L75.6776 145.48L76.7849 138.942C76.8367 138.635 76.8799 138.366 76.9142 138.135C76.9439 137.902 76.9262 137.705 76.8611 137.544C76.7389 137.233 76.4938 137.029 76.1261 136.934C75.7583 136.838 75.3297 136.785 74.8404 136.775L75.0822 135.347ZM79.3539 142.544L79.1277 143.88L73.7894 142.981L74.0156 141.645L79.3539 142.544Z" fill="white"/>
<path d="M64.9311 131.74C65.6782 132.088 66.2653 132.545 66.6925 133.113C67.1154 133.679 67.3589 134.311 67.423 135.011C67.4827 135.708 67.3394 136.427 66.9929 137.168L64.2483 143.034L62.6524 142.307L65.3848 136.468C65.5489 136.117 65.6372 135.776 65.6496 135.444C65.6577 135.11 65.6052 134.798 65.4922 134.508C65.3772 134.223 65.2105 133.969 64.9922 133.746C64.7738 133.523 64.5234 133.346 64.2411 133.215C63.9501 133.079 63.6509 133.001 63.3437 132.979C63.0301 132.96 62.7267 132.998 62.4333 133.094C62.138 133.194 61.8668 133.355 61.6199 133.578C61.3729 133.8 61.1684 134.085 61.0063 134.431L58.2739 140.271L56.684 139.532L59.4347 133.653C59.7812 132.912 60.2438 132.342 60.8226 131.941C61.397 131.539 62.0397 131.318 62.7506 131.28C63.4571 131.239 64.1839 131.393 64.9311 131.74Z" fill="white"/>
<path d="M56.0941 126.546C56.8626 127.117 57.358 127.754 57.5804 128.456C57.8028 129.158 57.7323 129.859 57.369 130.561L55.7879 129.725C55.9441 129.364 55.9633 129.003 55.8453 128.641C55.7274 128.279 55.4782 127.957 55.0978 127.674C54.7636 127.426 54.4574 127.299 54.1794 127.295C53.8947 127.292 53.6664 127.406 53.4944 127.635C53.3884 127.777 53.3385 127.916 53.3446 128.052C53.344 128.188 53.427 128.381 53.5935 128.63C53.76 128.879 54.0318 129.239 54.4089 129.71C54.8282 130.237 55.1329 130.693 55.3228 131.078C55.5098 131.468 55.5889 131.822 55.5601 132.14C55.5312 132.458 55.4007 132.773 55.1686 133.083C54.8792 133.47 54.5252 133.731 54.1067 133.867C53.6881 134.003 53.239 134.012 52.7594 133.894C52.2769 133.779 51.7878 133.538 51.2922 133.169C50.808 132.809 50.4355 132.416 50.1746 131.99C49.9098 131.56 49.7653 131.122 49.741 130.675C49.7168 130.228 49.8168 129.798 50.0409 129.387L51.6479 130.188C51.4847 130.478 51.4496 130.777 51.5425 131.084C51.6315 131.389 51.8398 131.678 52.1674 131.951C52.4797 132.213 52.7802 132.359 53.0688 132.389C53.3546 132.423 53.5762 132.334 53.7338 132.123C53.8227 132.005 53.8583 131.873 53.8406 131.729C53.823 131.585 53.7246 131.38 53.5456 131.116C53.3627 130.849 53.0751 130.474 52.6826 129.992C52.2816 129.497 51.9947 129.057 51.822 128.672C51.6427 128.288 51.5722 127.935 51.6107 127.612C51.6452 127.286 51.7829 126.962 52.0236 126.64C52.4906 126.016 53.086 125.695 53.8098 125.679C54.5296 125.66 55.2911 125.949 56.0941 126.546Z" fill="white"/>
<path d="M43.7057 122.502L43.7962 124.029L42.1239 123.994L42.8164 125.53L41.3857 126.084L40.8946 124.476L39.6485 125.629L38.6754 124.441L40.0579 123.454L38.5801 122.659L39.4105 121.372L40.7779 122.35L41.0815 120.715L42.5643 121.109L42.0412 122.691L43.7057 122.502Z" fill="white"/>
<path d="M40.0137 106.594C40.426 107.541 40.5724 108.441 40.4531 109.295C40.3293 110.151 39.9751 110.922 39.3905 111.607C38.804 112.288 38.0205 112.841 37.04 113.265C36.0596 113.69 35.1196 113.883 34.22 113.845C33.3185 113.803 32.5142 113.534 31.807 113.038C31.0953 112.543 30.5334 111.823 30.1211 110.876C29.6458 109.784 29.5246 108.756 29.7573 107.79C29.9857 106.827 30.4998 105.997 31.2996 105.302L32.4372 106.709C31.8974 107.161 31.5502 107.684 31.3957 108.277C31.2367 108.872 31.3109 109.522 31.6182 110.228C31.8949 110.864 32.2688 111.332 32.7397 111.634C33.2087 111.931 33.7494 112.074 34.3618 112.065C34.9678 112.052 35.6191 111.898 36.3157 111.602C37.0104 111.301 37.5713 110.933 37.9985 110.498C38.4194 110.061 38.6801 109.568 38.7808 109.019C38.8814 108.47 38.7934 107.878 38.5166 107.242C38.2093 106.537 37.7834 106.038 37.2389 105.748C36.6944 105.457 36.0743 105.353 35.3786 105.436L35.1247 103.647C36.1803 103.539 37.1413 103.73 38.0077 104.22C38.8698 104.711 39.5384 105.503 40.0137 106.594Z" fill="white"/>
<path d="M36.7792 96.452C36.9273 97.212 36.8849 97.909 36.6521 98.5432C36.4192 99.1773 36.0322 99.7098 35.4912 100.141C34.9446 100.568 34.2784 100.858 33.4926 101.01C32.6928 101.165 31.9606 101.141 31.2962 100.939C30.6318 100.736 30.0749 100.384 29.6255 99.8823C29.1761 99.3803 28.8788 98.7563 28.7334 98.0105C28.5844 97.2458 28.6263 96.5464 28.8592 95.9123C29.0921 95.2782 29.4814 94.7452 30.0271 94.3133C30.5681 93.8824 31.2315 93.5908 32.0173 93.4386C32.8077 93.2855 33.5375 93.3096 34.2066 93.5111C34.8701 93.7087 35.4289 94.0581 35.883 94.5591C36.3324 95.0611 36.6311 95.6921 36.7792 96.452ZM35.1842 96.761C35.0525 96.0855 34.7289 95.6273 34.2132 95.3864C33.6975 95.1455 33.0821 95.0944 32.3669 95.2329C31.6282 95.376 31.0725 95.6564 30.6998 96.0742C30.3224 96.493 30.1987 97.0354 30.3285 97.7015C30.4171 98.1565 30.5938 98.5118 30.8584 98.7672C31.1174 99.0189 31.4441 99.1795 31.8385 99.2491C32.2282 99.3197 32.6631 99.3085 33.143 99.2155C33.8817 99.0725 34.4397 98.7916 34.8171 98.3728C35.1889 97.9503 35.3112 97.413 35.1842 96.761Z" fill="white"/>
<path d="M35.5871 84.7446L31.8485 84.7244C31.604 84.7231 31.3331 84.7384 31.0358 84.7702C30.7384 84.8021 30.4528 84.8794 30.179 85.0022C29.9003 85.1201 29.6717 85.3005 29.493 85.5432C29.3143 85.7812 29.2239 86.1057 29.2217 86.5166C29.2205 86.7365 29.2553 86.9541 29.326 87.1695C29.3967 87.3849 29.5203 87.5815 29.6967 87.7593C29.8683 87.9323 30.1072 88.0721 30.4134 88.1789C30.7148 88.2857 31.1027 88.3403 31.5772 88.3429L31.1331 89.3655C30.4716 89.362 29.8732 89.2321 29.3378 88.9759C28.8023 88.715 28.3778 88.3352 28.0642 87.8365C27.7457 87.3378 27.5885 86.7253 27.5924 85.9989C27.5955 85.4255 27.6939 84.9529 27.8877 84.5812C28.0814 84.2095 28.3275 83.9146 28.6259 83.6963C28.9242 83.4781 29.2414 83.3174 29.5775 83.214C29.9136 83.1107 30.2327 83.0455 30.5348 83.0185C30.8322 82.9867 31.0743 82.9712 31.2612 82.9722L35.5966 82.9956L35.5871 84.7446ZM35.558 90.1134L27.7932 90.0715L27.8016 88.5304L30.2101 88.5434L30.2112 88.3355L35.5674 88.3644L35.558 90.1134Z" fill="white"/>
<path d="M36.7112 75.7539C36.7165 76.274 36.6693 76.7752 36.5694 77.2575C36.475 77.7358 36.3115 78.1511 36.0789 78.5032C35.8416 78.8546 35.5237 79.0971 35.1252 79.2308C34.764 79.3469 34.4103 79.3793 34.064 79.3281C33.7178 79.277 33.3275 79.2132 32.8933 79.1369L26.2447 77.968L26.5444 76.2738L33.0938 77.4252C33.4006 77.4792 33.6701 77.5241 33.9022 77.5601C34.1352 77.5913 34.3327 77.5751 34.4949 77.5114C34.8081 77.3918 35.0141 77.149 35.1129 76.783C35.2117 76.4171 35.2677 75.9902 35.281 75.5024L36.7112 75.7539ZM29.4623 79.9603L28.1241 79.725L29.0643 74.4095L30.4025 74.6448L29.4623 79.9603Z" fill="white"/>
<path d="M38.1751 71.3091C37.9882 71.8362 37.7306 72.2472 37.4023 72.5421C37.0695 72.8353 36.7023 73.0176 36.3008 73.0889C35.9009 73.1557 35.4999 73.1183 35.0977 72.9765C34.7452 72.8522 34.4497 72.6821 34.211 72.4662C33.9679 72.2487 33.7878 71.9825 33.6707 71.6675C33.5491 71.3509 33.4915 70.9758 33.4979 70.5421C33.5069 70.2158 33.5425 69.8432 33.6047 69.4241C33.6685 69.0006 33.7502 68.5479 33.8499 68.066C33.9468 67.5781 34.0462 67.0683 34.1484 66.5366L34.2744 67.2349C33.7699 67.0519 33.3571 67.0331 33.0361 67.1785C32.7151 67.3238 32.4579 67.669 32.2646 68.2142C32.1479 68.5431 32.1121 68.8878 32.1571 69.2483C32.2021 69.6088 32.3905 69.916 32.7224 70.1699L31.7274 71.4918C31.1722 71.0933 30.7966 70.5756 30.6005 69.9388C30.406 69.2975 30.4613 68.5466 30.7666 67.686C30.9967 67.0373 31.305 66.5048 31.6916 66.0886C32.0797 65.6679 32.5579 65.4234 33.1261 65.3551C33.43 65.3152 33.7224 65.3296 34.0031 65.3981C34.2793 65.4651 34.5756 65.5543 34.8919 65.6659L39.386 67.2502L38.8802 68.6762L37.2941 68.117L37.6355 67.9712C38.0476 68.4865 38.2996 69.0087 38.3915 69.5379C38.4806 70.0609 38.4084 70.6514 38.1751 71.3091ZM36.9887 70.5259C37.1198 70.1565 37.1661 69.818 37.1277 69.5105C37.0894 69.203 37.0024 68.9392 36.867 68.7191C36.7331 68.4945 36.5922 68.3257 36.4441 68.2127C36.2666 68.0538 36.0462 67.9229 35.7827 67.8198C35.5164 67.7107 35.2996 67.6267 35.1324 67.5678L35.4589 67.1203C35.3616 67.6384 35.2799 68.0836 35.2141 68.4557C35.1482 68.8278 35.0976 69.1496 35.0623 69.421C35.0225 69.6908 34.9999 69.9338 34.9945 70.1498C34.9952 70.3629 35.0175 70.5507 35.0616 70.7132C35.1056 70.8758 35.1736 71.0138 35.2655 71.1273C35.359 71.2363 35.4849 71.3187 35.643 71.3744C35.8238 71.4381 36.0002 71.4496 36.1722 71.4089C36.3398 71.3666 36.4945 71.2742 36.6366 71.1317C36.7803 70.9846 36.8976 70.7827 36.9887 70.5259Z" fill="white"/>
<path d="M42.4517 61.7584C42.0488 62.448 41.5518 62.9474 40.9606 63.2567C40.3653 63.5635 39.7245 63.6919 39.0383 63.6417C38.3544 63.5875 37.6737 63.3664 36.9962 62.9784C36.3111 62.575 35.7807 62.0872 35.405 61.5151C35.0275 60.9364 34.8311 60.3136 34.8159 59.6466C34.7965 58.9772 34.9847 58.304 35.3803 57.6268C35.8242 56.867 36.392 56.3367 37.0836 56.036C37.7734 55.7288 38.4967 55.6871 39.2535 55.9109L38.7887 57.6319C38.3609 57.5383 37.9691 57.5679 37.6135 57.7208C37.2537 57.8714 36.9737 58.118 36.7735 58.4607C36.5467 58.8489 36.4529 59.223 36.4921 59.5831C36.5272 59.9409 36.6713 60.2734 36.9244 60.5808C37.1774 60.8881 37.509 61.1609 37.919 61.399C38.5569 61.7694 39.1557 61.9264 39.7157 61.87C40.2756 61.8136 40.7196 61.5046 41.0477 60.943C41.2793 60.5466 41.3704 60.182 41.3208 59.849C41.2737 59.5119 41.112 59.1858 40.8358 58.8705L42.0677 57.5453C42.6305 58.1486 42.9454 58.8154 43.0124 59.5456C43.0753 60.2734 42.8884 61.011 42.4517 61.7584Z" fill="white"/>
<path d="M48.3797 53.2053C48.1268 53.6602 47.8375 54.0728 47.5119 54.4431C47.193 54.8126 46.8452 55.0933 46.4685 55.2851C46.0882 55.4738 45.6916 55.5283 45.2789 55.4485C44.9073 55.3716 44.5836 55.2258 44.3078 55.0109C44.0321 54.796 43.7242 54.5484 43.3844 54.2683L38.1811 49.9797L39.2805 48.6538L44.4062 52.8785C44.6464 53.0764 44.8584 53.2481 45.0425 53.3936C45.2296 53.5354 45.4095 53.6186 45.582 53.643C45.9136 53.6931 46.213 53.5833 46.4801 53.3136C46.7472 53.044 47.0073 52.7003 47.2604 52.2827L48.3797 53.2053ZM39.9929 53.2959L38.9456 52.4327L42.3951 48.2726L43.4424 49.1358L39.9929 53.2959Z" fill="white"/>
<path d="M56.5881 46.2033C55.9142 46.6767 55.224 46.957 54.5174 47.0441C53.8148 47.1285 53.1432 47.0245 52.5027 46.7321C51.866 46.4369 51.3117 45.9553 50.8396 45.2873L47.1001 39.9961L48.5259 38.977L52.2488 44.2447C52.4724 44.5612 52.7254 44.8072 53.0079 44.9829C53.2943 45.1558 53.5917 45.2655 53.9001 45.312C54.2057 45.3545 54.5098 45.3367 54.8123 45.2586C55.1148 45.1806 55.3934 45.0521 55.6481 44.8732C55.9106 44.6888 56.1277 44.4691 56.2993 44.2141C56.472 43.9524 56.5897 43.671 56.6524 43.3697C56.7123 43.0646 56.7068 42.7498 56.6359 42.4255C56.565 42.1012 56.4192 41.7828 56.1983 41.4703L52.4754 36.2025L53.9094 35.1951L57.6572 40.498C58.1293 41.166 58.3957 41.8499 58.4564 42.5497C58.5209 43.2467 58.3932 43.9123 58.0732 44.5463C57.7571 45.1776 57.2621 45.7299 56.5881 46.2033Z" fill="white"/>
<path d="M65.4932 41.1524C64.6137 41.5326 63.8133 41.6443 63.092 41.4873C62.3706 41.3304 61.7952 40.9203 61.3657 40.257L62.8796 39.3055C63.1157 39.6202 63.4206 39.8165 63.7941 39.8946C64.1677 39.9727 64.5721 39.9177 65.0075 39.7294C65.3901 39.564 65.6523 39.3621 65.7941 39.1237C65.9385 38.879 65.9534 38.6251 65.839 38.3621C65.7684 38.1999 65.6726 38.0876 65.5515 38.0254C65.4329 37.9569 65.2238 37.9327 64.9243 37.9528C64.6248 37.9729 64.1763 38.0287 63.5788 38.1204C62.9121 38.2211 62.3638 38.2577 61.9338 38.23C61.5019 38.198 61.1547 38.0902 60.892 37.9069C60.6294 37.7235 60.4209 37.4543 60.2664 37.0992C60.0739 36.6564 60.0226 36.2202 60.1126 35.7906C60.2027 35.361 60.4184 34.9682 60.7599 34.6122C61.0995 34.2519 61.5529 33.9491 62.1202 33.7038C62.6743 33.4643 63.2018 33.3378 63.7027 33.3243C64.208 33.309 64.6613 33.4022 65.0624 33.6037C65.4636 33.8053 65.7874 34.1055 66.0339 34.5041L64.5371 35.495C64.366 35.2096 64.1235 35.0306 63.8098 34.9579C63.5004 34.8832 63.1453 34.9196 62.7444 35.0669C62.3611 35.2065 62.0846 35.3938 61.9151 35.6285C61.7436 35.8589 61.7103 36.0947 61.8152 36.3358C61.8743 36.4717 61.971 36.568 62.1053 36.6245C62.2396 36.681 62.4663 36.6976 62.7853 36.6743C63.1087 36.6491 63.5779 36.5868 64.193 36.4876C64.8232 36.387 65.3486 36.3578 65.7692 36.3999C66.1923 36.4358 66.5349 36.5507 66.7969 36.7447C67.0633 36.9369 67.2766 37.2171 67.4368 37.5853C67.7476 38.3 67.7301 38.9743 67.3841 39.6083C67.0425 40.2403 66.4122 40.755 65.4932 41.1524Z" fill="white"/>
<path d="M75.1963 32.4846L73.8243 31.7993L74.6917 30.3733L73.0104 30.2029L73.2445 28.6907L74.8871 29.0707L74.5083 27.4182L76.0269 27.172L76.1928 28.859L77.623 27.9808L78.3256 29.3411L76.7922 30.0327L78.0609 31.1124L76.9775 32.1958L75.8643 30.9529L75.1963 32.4846Z" fill="white"/>
<defs>
<linearGradient id="paint0_linear_70_795" x1="16.3557" y1="85.906" x2="156" y2="85.9229" gradientUnits="userSpaceOnUse">
<stop stop-color="#A93E17"/>
<stop offset="1" stop-color="#15399A"/>
</linearGradient>
<linearGradient id="paint1_linear_70_795" x1="71.0762" y1="85.4954" x2="101" y2="85.4994" gradientUnits="userSpaceOnUse">
<stop stop-color="#A93E17"/>
<stop offset="1" stop-color="#15399A"/>
</linearGradient>
<linearGradient id="paint2_linear_70_795" x1="78.266" y1="86.8733" x2="84.539" y2="86.8738" gradientUnits="userSpaceOnUse">
<stop stop-color="#A93E17"/>
<stop offset="1" stop-color="#15399A"/>
</linearGradient>
<linearGradient id="paint3_linear_70_795" x1="88.1856" y1="90.964" x2="92.0208" y2="90.9643" gradientUnits="userSpaceOnUse">
<stop stop-color="#A93E17"/>
<stop offset="1" stop-color="#15399A"/>
</linearGradient>
</defs>
</svg>
