<!DOCTYPE svg PUBLIC "-//W3C//DTD SVG 1.1//EN" "http://www.w3.org/Graphics/SVG/1.1/DTD/svg11.dtd">
<!-- Uploaded to: SVG Repo, www.svgrepo.com, Transformed by: SVG Repo Mixer Tools -->
<svg fill="#a03e1f" width="800px" height="800px" viewBox="0 0 35 35" data-name="Layer 2" id="a7daf31a-416c-477a-878c-91e621672bd4" xmlns="http://www.w3.org/2000/svg">
<g id="SVGRepo_bgCarrier" stroke-width="0"/>
<g id="SVGRepo_tracerCarrier" stroke-linecap="round" stroke-linejoin="round"/>
<g id="SVGRepo_iconCarrier">
<path d="M17.5,33.243a1.27,1.27,0,0,1-.589-.145C-.691,23.754.144,12.2.3,10.9A9.224,9.224,0,0,1,17.5,6.351a9.229,9.229,0,0,1,17.21,4.62c.18,1.714.641,12.963-16.621,22.127A1.261,1.261,0,0,1,17.5,33.243Zm0-1.25h0ZM9.528,4.257a6.738,6.738,0,0,0-6.73,6.73,1.3,1.3,0,0,1-.014.187c-.06.428-1.278,10.652,14.716,19.4,15.859-8.678,14.771-18.96,14.716-19.4a1.36,1.36,0,0,1-.009-.156c0-.021,0-.047,0-.074a6.73,6.73,0,0,0-13.46.041,1.25,1.25,0,0,1-2.5,0A6.733,6.733,0,0,0,9.528,4.257Z"/>
</g>
</svg>