<svg width="16" height="17" viewBox="0 0 16 17" fill="none" xmlns="http://www.w3.org/2000/svg">
<path d="M14.091 8.18092L12.2737 7.66159C11.4553 7.43086 10.7098 6.99397 10.1085 6.39272C9.50728 5.79147 9.07039 5.04598 8.83967 4.22759L8.32033 2.41026C8.29421 2.34667 8.24978 2.29229 8.19269 2.25402C8.13559 2.21575 8.0684 2.19531 7.99967 2.19531C7.93093 2.19531 7.86374 2.21575 7.80664 2.25402C7.74955 2.29229 7.70512 2.34667 7.679 2.41026L7.15967 4.22759C6.92894 5.04598 6.49205 5.79147 5.8908 6.39272C5.28955 6.99397 4.54406 7.43086 3.72567 7.66159L1.90833 8.18092C1.83855 8.20073 1.77714 8.24276 1.73341 8.30063C1.68968 8.3585 1.66602 8.42906 1.66602 8.50159C1.66602 8.57413 1.68968 8.64468 1.73341 8.70255C1.77714 8.76043 1.83855 8.80245 1.90833 8.82226L3.72567 9.34159C4.54406 9.57232 5.28955 10.0092 5.8908 10.6105C6.49205 11.2117 6.92894 11.9572 7.15967 12.7756L7.679 14.5929C7.69881 14.6627 7.74083 14.7241 7.7987 14.7678C7.85657 14.8116 7.92713 14.8352 7.99967 14.8352C8.0722 14.8352 8.14276 14.8116 8.20063 14.7678C8.2585 14.7241 8.30053 14.6627 8.32033 14.5929L8.83967 12.7756C9.07039 11.9572 9.50728 11.2117 10.1085 10.6105C10.7098 10.0092 11.4553 9.57232 12.2737 9.34159L14.091 8.82226C14.1608 8.80245 14.2222 8.76043 14.2659 8.70255C14.3097 8.64468 14.3333 8.57413 14.3333 8.50159C14.3333 8.42906 14.3097 8.3585 14.2659 8.30063C14.2222 8.24276 14.1608 8.20073 14.091 8.18092Z" fill="#A93E17"/>
</svg>
