<svg width="60" height="60" viewBox="0 0 60 60" fill="none" xmlns="http://www.w3.org/2000/svg">
<path d="M30 42.9453V47.2739" stroke="#A93E17" stroke-width="2" stroke-linecap="round" stroke-linejoin="round"/>
<path d="M30 21.4766V25.5051" stroke="#A93E17" stroke-width="2" stroke-linecap="round" stroke-linejoin="round"/>
<path d="M30.0004 57.8156C45.0004 57.8156 55.7147 52.5013 55.7147 40.6728C55.7147 27.8156 49.2861 19.2442 36.429 12.8156L41.4861 6.30134C41.7431 5.87393 41.8824 5.38619 41.8901 4.88756C41.8977 4.38894 41.7734 3.89715 41.5298 3.46204C41.2861 3.02694 40.9318 2.66398 40.5026 2.40997C40.0735 2.15595 39.5848 2.01991 39.0861 2.01562H20.9147C20.416 2.01991 19.9274 2.15595 19.4982 2.40997C19.0691 2.66398 18.7147 3.02694 18.4711 3.46204C18.2274 3.89715 18.1031 4.38894 18.1108 4.88756C18.1184 5.38619 18.2578 5.87393 18.5147 6.30134L23.5718 12.8585C10.7147 19.3299 4.28613 27.9013 4.28613 40.7585C4.28613 52.5013 15.0004 57.8156 30.0004 57.8156Z" stroke="#A93E17" stroke-width="2" stroke-linecap="round" stroke-linejoin="round"/>
<path d="M25.7147 40.9743C26.2376 41.595 26.8958 42.0877 27.6387 42.4146C28.3816 42.7415 29.1895 42.8938 30.0004 42.86C31.2398 42.9445 32.4638 42.5451 33.4149 41.7459C34.366 40.9467 34.9702 39.8098 35.1004 38.5743C34.9702 37.3388 34.366 36.2019 33.4149 35.4027C32.4638 34.6034 31.2398 34.2041 30.0004 34.2886C28.7609 34.3731 27.537 33.9737 26.5859 33.1745C25.6348 32.3752 25.0306 31.2384 24.9004 30.0029C25.0202 28.763 25.6214 27.6197 26.575 26.8183C27.5286 26.017 28.7585 25.6216 30.0004 25.7172C30.797 25.6684 31.5946 25.7969 32.3356 26.0933C33.0767 26.3897 33.7428 26.8467 34.2861 27.4314" stroke="#A93E17" stroke-width="2" stroke-linecap="round" stroke-linejoin="round"/>
</svg>
