<svg width="80" height="80" viewBox="0 0 80 80" fill="none" xmlns="http://www.w3.org/2000/svg">
<g opacity="0.1">
<path d="M25.7165 74.2846C38.3402 74.2846 48.5737 64.0511 48.5737 51.4275C48.5737 38.8038 38.3402 28.5703 25.7165 28.5703C13.0929 28.5703 2.85938 38.8038 2.85938 51.4275C2.85938 64.0511 13.0929 74.2846 25.7165 74.2846Z" stroke="white" stroke-width="1.5" stroke-linecap="round" stroke-linejoin="round"/>
<path d="M54.2868 74.2846C66.9105 74.2846 77.144 64.0511 77.144 51.4275C77.144 38.8038 66.9105 28.5703 54.2868 28.5703C41.6632 28.5703 31.4297 38.8038 31.4297 51.4275C31.4297 64.0511 41.6632 74.2846 54.2868 74.2846Z" stroke="white" stroke-width="1.5" stroke-linecap="round" stroke-linejoin="round"/>
<path d="M39.9978 51.4291C52.6214 51.4291 62.8549 41.1956 62.8549 28.572C62.8549 15.9483 52.6214 5.71484 39.9978 5.71484C27.3741 5.71484 17.1406 15.9483 17.1406 28.572C17.1406 41.1956 27.3741 51.4291 39.9978 51.4291Z" stroke="white" stroke-width="1.5" stroke-linecap="round" stroke-linejoin="round"/>
</g>
</svg>
