<svg width="80" height="80" viewBox="0 0 80 80" fill="none" xmlns="http://www.w3.org/2000/svg">
<g opacity="0.1">
<path d="M48.5737 28.5692C51.7296 28.5692 54.2879 26.0108 54.2879 22.8549C54.2879 19.699 51.7296 17.1406 48.5737 17.1406C45.4177 17.1406 42.8594 19.699 42.8594 22.8549C42.8594 26.0108 45.4177 28.5692 48.5737 28.5692Z" stroke="white" stroke-width="1.5" stroke-linecap="round" stroke-linejoin="round"/>
<path d="M25.7165 57.1401C27.2945 57.1401 28.5737 55.8609 28.5737 54.2829C28.5737 52.705 27.2945 51.4258 25.7165 51.4258C24.1386 51.4258 22.8594 52.705 22.8594 54.2829C22.8594 55.8609 24.1386 57.1401 25.7165 57.1401Z" stroke="white" stroke-width="1.5" stroke-linecap="round" stroke-linejoin="round"/>
<path d="M25.7143 37.1395C28.8702 37.1395 31.4286 34.5811 31.4286 31.4252C31.4286 28.2693 28.8702 25.7109 25.7143 25.7109C22.5584 25.7109 20 28.2693 20 31.4252C20 34.5811 22.5584 37.1395 25.7143 37.1395Z" stroke="white" stroke-width="1.5" stroke-linecap="round" stroke-linejoin="round"/>
<path d="M54.4005 70.1698C54.3368 69.0614 53.9516 67.9955 53.292 67.1025C52.6324 66.2095 51.7269 65.5279 50.6862 65.1412C48.1017 64.2917 45.9049 62.5481 44.491 60.2239C43.077 57.8997 42.5385 55.1472 42.9723 52.4615C43.4062 49.7757 44.7839 47.3329 46.8578 45.572C48.9317 43.8112 51.5657 42.848 54.2862 42.8555H64.9719C66.8047 42.8606 68.6118 42.4248 70.2408 41.585C71.8698 40.7452 73.2729 39.5259 74.3318 38.03C75.3907 36.5341 76.0743 34.8054 76.3249 32.9899C76.5756 31.1744 76.3859 29.3252 75.7719 27.5983C73.4991 21.181 69.5063 15.5118 64.2297 11.21C58.9531 6.90828 52.5957 4.13949 45.8521 3.20618C39.1084 2.27287 32.238 3.21093 25.9914 5.91787C19.7448 8.62482 14.3623 12.9965 10.432 18.5553C6.50174 24.1142 4.17484 30.6463 3.70555 37.438C3.23626 44.2297 4.64264 51.0198 7.77103 57.0663C10.8994 63.1129 15.6295 68.1833 21.4444 71.7237C27.2593 75.264 33.9355 77.1381 40.7434 77.1412C44.1054 77.1506 47.4522 76.689 50.6862 75.7698C51.874 75.4369 52.9026 74.6883 53.5845 73.6603C54.2663 72.6323 54.5559 71.3935 54.4005 70.1698Z" stroke="white" stroke-width="1.5" stroke-linecap="round" stroke-linejoin="round"/>
</g>
</svg>
