<svg width="30" height="30" viewBox="0 0 30 30" fill="none" xmlns="http://www.w3.org/2000/svg">
<mask id="path-1-inside-1_453_1929" fill="white">
<path d="M20.0045 19.8214C23.1968 14.812 22.7955 15.437 22.8875 15.3064C24.0498 13.6671 24.6641 11.7376 24.6641 9.72656C24.6641 4.39336 20.3363 0 14.9961 0C9.67332 0 5.32812 4.38469 5.32812 9.72656C5.32812 11.7363 5.95531 13.7163 7.15566 15.3777L9.98762 19.8214C6.95979 20.2867 1.8125 21.6734 1.8125 24.7266C1.8125 25.8396 2.53895 27.4257 5.99973 28.6617C8.41625 29.5247 11.6112 30 14.9961 30C21.3257 30 28.1797 28.2145 28.1797 24.7266C28.1797 21.6728 23.0384 20.2877 20.0045 19.8214ZM8.62396 14.4108C8.6143 14.3957 8.60422 14.381 8.59367 14.3664C7.59482 12.9923 7.08594 11.3637 7.08594 9.72656C7.08594 5.33098 10.6254 1.75781 14.9961 1.75781C19.3578 1.75781 22.9062 5.33256 22.9062 9.72656C22.9062 11.3664 22.407 12.9397 21.4621 14.2776C21.3775 14.3893 21.8192 13.703 14.9961 24.4095L8.62396 14.4108ZM14.9961 28.2422C8.08238 28.2422 3.57031 26.21 3.57031 24.7266C3.57031 23.7295 5.88875 22.0901 11.0263 21.4511L14.2549 26.5173C14.4163 26.7705 14.6957 26.9238 14.996 26.9238C15.2963 26.9238 15.5759 26.7705 15.7372 26.5173L18.9658 21.4511C24.1034 22.0901 26.4219 23.7295 26.4219 24.7266C26.4219 26.1974 21.9504 28.2422 14.9961 28.2422Z"/>
</mask>
<path d="M20.0045 19.8214L18.3178 18.7465L16.6699 21.3324L19.7006 21.7982L20.0045 19.8214ZM22.8875 15.3064L21.2559 14.1496L21.2524 14.1547L22.8875 15.3064ZM7.15566 15.3777L8.84228 14.3028L8.81096 14.2537L8.77682 14.2064L7.15566 15.3777ZM9.98762 19.8214L10.2914 21.7982L13.3222 21.3325L11.6742 18.7466L9.98762 19.8214ZM5.99973 28.6617L5.32706 30.5451L5.32707 30.5451L5.99973 28.6617ZM8.62396 14.4108L10.3106 13.336L10.3089 13.3333L8.62396 14.4108ZM8.59367 14.3664L10.2123 13.1916L10.2114 13.1905L8.59367 14.3664ZM21.4621 14.2776L23.0559 15.4859L23.0763 15.4589L23.0959 15.4313L21.4621 14.2776ZM14.9961 24.4095L13.3095 25.4844L14.9961 28.1309L16.6827 25.4844L14.9961 24.4095ZM11.0263 21.4511L12.7129 20.3763L12.0336 19.3104L10.7794 19.4664L11.0263 21.4511ZM14.2549 26.5173L15.9416 25.4425L15.9415 25.4424L14.2549 26.5173ZM15.7372 26.5173L14.0506 25.4425L14.0504 25.4426L15.7372 26.5173ZM18.9658 21.4511L19.2126 19.4664L17.9584 19.3104L17.2791 20.3763L18.9658 21.4511ZM20.0045 19.8214L21.6911 20.8962C24.9152 15.8371 24.4661 16.5383 24.5226 16.4581L22.8875 15.3064L21.2524 14.1547C21.272 14.1269 21.2948 14.0977 21.2932 14.0997C21.2416 14.1657 21.2038 14.2218 21.1796 14.2583C21.1424 14.3144 21.0723 14.424 20.9225 14.6587C20.612 15.1454 19.9131 16.2433 18.3178 18.7465L20.0045 19.8214ZM22.8875 15.3064L24.519 16.4631C25.9212 14.4854 26.6641 12.1517 26.6641 9.72656H24.6641H22.6641C22.6641 11.3235 22.1783 12.8487 21.256 14.1496L22.8875 15.3064ZM24.6641 9.72656H26.6641C26.6641 3.30548 21.4575 -2 14.9961 -2V0V2C19.2151 2 22.6641 5.48124 22.6641 9.72656H24.6641ZM14.9961 0V-2C8.55562 -2 3.32812 3.29329 3.32812 9.72656H5.32812H7.32812C7.32812 5.47608 10.791 2 14.9961 2V0ZM5.32812 9.72656H3.32812C3.32812 12.1524 4.08524 14.543 5.53451 16.549L7.15566 15.3777L8.77682 14.2064C7.82538 12.8895 7.32812 11.3203 7.32812 9.72656H5.32812ZM7.15566 15.3777L5.46905 16.4526L8.301 20.8963L9.98762 19.8214L11.6742 18.7466L8.84228 14.3028L7.15566 15.3777ZM9.98762 19.8214L9.68384 17.8447C8.08479 18.0904 5.82578 18.5906 3.91054 19.4951C2.15522 20.3241 -0.1875 21.926 -0.1875 24.7266H1.8125H3.8125C3.8125 24.474 4.04342 23.856 5.6187 23.112C7.03406 22.4436 8.86261 22.0178 10.2914 21.7982L9.98762 19.8214ZM1.8125 24.7266H-0.1875C-0.1875 25.7631 0.16747 26.9137 1.1143 27.9776C2.02446 29.0003 3.40338 29.8581 5.32706 30.5451L5.99973 28.6617L6.67239 26.7782C5.13529 26.2292 4.4206 25.676 4.10234 25.3184C3.82075 25.002 3.8125 24.803 3.8125 24.7266H1.8125ZM5.99973 28.6617L5.32707 30.5451C8.01602 31.5055 11.4509 32 14.9961 32V30V28C11.7715 28 8.81648 27.5439 6.67239 26.7782L5.99973 28.6617ZM14.9961 30V32C18.3129 32 21.8475 31.5365 24.626 30.5576C26.0091 30.0704 27.3289 29.4127 28.3372 28.518C29.3699 27.6018 30.1797 26.3307 30.1797 24.7266H28.1797H26.1797C26.1797 24.8664 26.1327 25.1265 25.6825 25.526C25.2078 25.9471 24.4186 26.3898 23.297 26.7849C21.0661 27.5708 18.0089 28 14.9961 28V30ZM28.1797 24.7266H30.1797C30.1797 21.9266 27.8399 20.3247 26.084 19.4953C24.1693 18.5908 21.91 18.0908 20.3083 17.8446L20.0045 19.8214L19.7006 21.7982C21.1329 22.0183 22.9612 22.444 24.3756 23.1121C25.9489 23.8553 26.1797 24.4728 26.1797 24.7266H28.1797ZM8.62396 14.4108L10.3089 13.3333C10.2777 13.2846 10.2455 13.2374 10.2123 13.1916L8.59367 14.3664L6.97507 15.5412C6.96295 15.5245 6.95089 15.5069 6.93907 15.4884L8.62396 14.4108ZM8.59367 14.3664L10.2114 13.1905C9.46597 12.1649 9.08594 10.9497 9.08594 9.72656H7.08594H5.08594C5.08594 11.7777 5.72368 13.8196 6.9759 15.5424L8.59367 14.3664ZM7.08594 9.72656H9.08594C9.08594 6.42037 11.745 3.75781 14.9961 3.75781V1.75781V-0.242188C9.50567 -0.242188 5.08594 4.24158 5.08594 9.72656H7.08594ZM14.9961 1.75781V3.75781C18.2393 3.75781 20.9062 6.42319 20.9062 9.72656H22.9062H24.9062C24.9062 4.24193 20.4762 -0.242188 14.9961 -0.242188V1.75781ZM22.9062 9.72656H20.9062C20.9062 10.9537 20.5347 12.1238 19.8284 13.1239L21.4621 14.2776L23.0959 15.4313C24.2793 13.7555 24.9062 11.7791 24.9062 9.72656H22.9062ZM21.4621 14.2776L19.8684 13.0693C19.8908 13.0397 19.911 13.0155 19.9099 13.0168C19.8917 13.0388 19.8608 13.0768 19.8234 13.1282C19.7772 13.1916 19.7319 13.2612 19.6986 13.3125C19.6157 13.44 19.4442 13.7081 19.0698 14.295C18.3166 15.4761 16.7205 17.9823 13.3095 23.3346L14.9961 24.4095L16.6827 25.4844C20.0948 20.1302 21.6895 17.6263 22.4423 16.446C22.821 15.8522 22.9813 15.6017 23.0526 15.492C23.0965 15.4246 23.0838 15.4459 23.0563 15.4836C23.0282 15.5221 23.0032 15.553 22.9912 15.5675C22.9889 15.5703 23.0008 15.556 23.0131 15.5407C23.0272 15.5231 23.0414 15.505 23.0559 15.4859L21.4621 14.2776ZM14.9961 24.4095L16.6827 23.3346L10.3106 13.336L8.62396 14.4108L6.93736 15.4857L13.3095 25.4844L14.9961 24.4095ZM14.9961 28.2422V26.2422C11.7192 26.2422 9.09109 25.7586 7.34805 25.1518C6.46612 24.8448 5.89379 24.535 5.58499 24.3029C5.16883 23.9901 5.57031 24.1051 5.57031 24.7266H3.57031H1.57031C1.57031 26.0897 2.5358 27.015 3.18171 27.5005C3.93497 28.0666 4.92277 28.543 6.03307 28.9295C8.27449 29.7097 11.3593 30.2422 14.9961 30.2422V28.2422ZM3.57031 24.7266H5.57031C5.57031 25.2335 5.30611 25.4219 5.44169 25.2834C5.53802 25.1851 5.78549 24.9851 6.27019 24.7414C7.23001 24.2588 8.85688 23.7364 11.2731 23.4358L11.0263 21.4511L10.7794 19.4664C8.05812 19.8049 5.95702 20.4217 4.47325 21.1678C3.73615 21.5384 3.08292 21.9752 2.58399 22.4846C2.12432 22.9539 1.57031 23.7211 1.57031 24.7266H3.57031ZM11.0263 21.4511L9.33964 22.526L12.5683 27.5922L14.2549 26.5173L15.9415 25.4424L12.7129 20.3763L11.0263 21.4511ZM14.2549 26.5173L12.5682 27.5921C13.0969 28.4218 14.0125 28.9238 14.996 28.9238V26.9238V24.9238C15.3789 24.9238 15.7356 25.1193 15.9416 25.4425L14.2549 26.5173ZM14.996 26.9238V28.9238C15.9795 28.9238 16.8953 28.4217 17.4239 27.592L15.7372 26.5173L14.0504 25.4426C14.2565 25.1193 14.6131 24.9238 14.996 24.9238V26.9238ZM15.7372 26.5173L17.4238 27.5922L20.6524 22.526L18.9658 21.4511L17.2791 20.3763L14.0506 25.4425L15.7372 26.5173ZM18.9658 21.4511L18.7189 23.4358C21.1352 23.7364 22.7621 24.2588 23.722 24.7414C24.2067 24.9851 24.4542 25.1851 24.5505 25.2835C24.6861 25.4219 24.4219 25.2335 24.4219 24.7266H26.4219H28.4219C28.4219 23.7211 27.8678 22.9539 27.4082 22.4846C26.9092 21.9752 26.256 21.5384 25.5189 21.1677C24.0351 20.4217 21.9339 19.8049 19.2126 19.4664L18.9658 21.4511ZM26.4219 24.7266H24.4219C24.4219 24.1047 24.8225 23.9884 24.4094 24.3002C24.1036 24.5312 23.5351 24.8408 22.6565 25.1481C20.92 25.7555 18.293 26.2422 14.9961 26.2422V28.2422V30.2422C18.6535 30.2422 21.7394 29.7065 23.9772 28.9238C25.0858 28.536 26.0698 28.0587 26.8196 27.4925C27.4623 27.0073 28.4219 26.0838 28.4219 24.7266H26.4219Z" fill="#A93E17" mask="url(#path-1-inside-1_453_1929)"/>
<mask id="path-3-inside-2_453_1929" fill="white">
<path d="M15.0039 5.32812C12.5808 5.32812 10.6094 7.29951 10.6094 9.72266C10.6094 12.1458 12.5808 14.1172 15.0039 14.1172C17.4271 14.1172 19.3984 12.1458 19.3984 9.72266C19.3984 7.29951 17.4271 5.32812 15.0039 5.32812ZM15.0039 12.3594C13.55 12.3594 12.3672 11.1765 12.3672 9.72266C12.3672 8.26877 13.55 7.08594 15.0039 7.08594C16.4578 7.08594 17.6406 8.26877 17.6406 9.72266C17.6406 11.1765 16.4578 12.3594 15.0039 12.3594Z"/>
</mask>
<path d="M15.0039 5.32812V3.32812C11.4762 3.32812 8.60938 6.19494 8.60938 9.72266H10.6094H12.6094C12.6094 8.40408 13.6853 7.32812 15.0039 7.32812V5.32812ZM10.6094 9.72266H8.60938C8.60938 13.2504 11.4762 16.1172 15.0039 16.1172V14.1172V12.1172C13.6853 12.1172 12.6094 11.0412 12.6094 9.72266H10.6094ZM15.0039 14.1172V16.1172C18.5316 16.1172 21.3984 13.2504 21.3984 9.72266H19.3984H17.3984C17.3984 11.0412 16.3225 12.1172 15.0039 12.1172V14.1172ZM19.3984 9.72266H21.3984C21.3984 6.19494 18.5316 3.32812 15.0039 3.32812V5.32812V7.32812C16.3225 7.32812 17.3984 8.40408 17.3984 9.72266H19.3984ZM15.0039 12.3594V10.3594C14.6546 10.3594 14.3672 10.072 14.3672 9.72266H12.3672H10.3672C10.3672 12.2811 12.4455 14.3594 15.0039 14.3594V12.3594ZM12.3672 9.72266H14.3672C14.3672 9.37334 14.6546 9.08594 15.0039 9.08594V7.08594V5.08594C12.4455 5.08594 10.3672 7.1642 10.3672 9.72266H12.3672ZM15.0039 7.08594V9.08594C15.3532 9.08594 15.6406 9.37334 15.6406 9.72266H17.6406H19.6406C19.6406 7.1642 17.5624 5.08594 15.0039 5.08594V7.08594ZM17.6406 9.72266H15.6406C15.6406 10.072 15.3532 10.3594 15.0039 10.3594V12.3594V14.3594C17.5624 14.3594 19.6406 12.2811 19.6406 9.72266H17.6406Z" fill="#A93E17" mask="url(#path-3-inside-2_453_1929)"/>
</svg>
