<svg width="80" height="80" viewBox="0 0 80 80" fill="none" xmlns="http://www.w3.org/2000/svg">
<g opacity="0.1">
<path d="M40 57.2539V63.0253" stroke="white" stroke-width="1.5" stroke-linecap="round" stroke-linejoin="round"/>
<path d="M40 28.625V33.9964" stroke="white" stroke-width="1.5" stroke-linecap="round" stroke-linejoin="round"/>
<path d="M40.0045 77.0836C60.0045 77.0836 74.2902 69.9979 74.2902 54.2264C74.2902 37.0836 65.7187 25.655 48.5759 17.0836L55.3187 8.39788C55.6613 7.828 55.8471 7.17768 55.8573 6.51285C55.8675 5.84801 55.7018 5.19229 55.3769 4.61215C55.0521 4.03201 54.5796 3.54807 54.0074 3.20938C53.4352 2.8707 52.7836 2.68931 52.1187 2.68359H27.8902C27.2253 2.68931 26.5737 2.8707 26.0015 3.20938C25.4293 3.54807 24.9569 4.03201 24.632 4.61215C24.3071 5.19229 24.1414 5.84801 24.1516 6.51285C24.1618 7.17768 24.3476 7.828 24.6902 8.39788L31.433 17.1407C14.2902 25.7693 5.71875 37.1979 5.71875 54.3407C5.71875 69.9979 20.0045 77.0836 40.0045 77.0836Z" stroke="white" stroke-width="1.5" stroke-linecap="round" stroke-linejoin="round"/>
<path d="M34.2888 54.6272C34.9861 55.4548 35.8636 56.1117 36.8542 56.5476C37.8447 56.9834 38.9219 57.1866 40.0031 57.1415C41.6557 57.2541 43.2876 56.7216 44.5558 55.656C45.8239 54.5903 46.6295 53.0745 46.8031 51.4272C46.6295 49.7799 45.8239 48.264 44.5558 47.1984C43.2876 46.1327 41.6557 45.6002 40.0031 45.7129C38.3505 45.8256 36.7186 45.2931 35.4505 44.2274C34.1823 43.1618 33.3768 41.6459 33.2031 39.9986C33.3628 38.3455 34.1645 36.821 35.436 35.7525C36.7074 34.6841 38.3472 34.1569 40.0031 34.2843C41.0653 34.2193 42.1287 34.3906 43.1168 34.7859C44.1049 35.1811 44.993 35.7904 45.7174 36.57" stroke="white" stroke-width="1.5" stroke-linecap="round" stroke-linejoin="round"/>
</g>
</svg>
