<svg width="50" height="50" viewBox="0 0 50 50" fill="none" xmlns="http://www.w3.org/2000/svg">
<g clip-path="url(#clip0_97_460)">
<path d="M26.6788 24.6456C26.1491 24.8756 25.5778 24.9943 25.0003 24.9943C24.4228 24.9943 23.8514 24.8756 23.3217 24.6456L2.96455 15.217C2.63399 15.0503 2.35619 14.7951 2.1621 14.4798C1.968 14.1645 1.86523 13.8015 1.86523 13.4313C1.86523 13.0611 1.968 12.6981 2.1621 12.3828C2.35619 12.0675 2.63399 11.8123 2.96455 11.6456L23.3217 2.14559C23.8514 1.91557 24.4228 1.79687 25.0003 1.79688C25.5778 1.79688 26.1491 1.91557 26.6788 2.14559L47.036 11.5742C47.3666 11.7409 47.6443 11.9961 47.8384 12.3114C48.0325 12.6267 48.1353 12.9896 48.1353 13.3599C48.1353 13.7301 48.0325 14.0931 47.8384 14.4084C47.6443 14.7236 47.3666 14.9789 47.036 15.1456L26.6788 24.6456Z" stroke="#A93E17" stroke-width="2" stroke-linecap="round" stroke-linejoin="round"/>
<path d="M48.2147 26.25L26.429 36.2857C25.9637 36.4979 25.4583 36.6078 24.9468 36.6078C24.4354 36.6078 23.93 36.4979 23.4647 36.2857L1.78613 26.25" stroke="#A93E17" stroke-width="2" stroke-linecap="round" stroke-linejoin="round"/>
<path d="M48.2147 37.8594L26.429 47.8951C25.9637 48.1073 25.4583 48.2172 24.9468 48.2172C24.4354 48.2172 23.93 48.1073 23.4647 47.8951L1.78613 37.8594" stroke="#A93E17" stroke-width="2" stroke-linecap="round" stroke-linejoin="round"/>
</g>
<defs>
<clipPath id="clip0_97_460">
<rect width="50" height="50" fill="white"/>
</clipPath>
</defs>
</svg>
