<svg width="40" height="40" viewBox="0 0 40 40" fill="none" xmlns="http://www.w3.org/2000/svg">
<g clip-path="url(#clip0_123_3136)">
<path d="M35.7145 4.28906L25.9717 14.0319" stroke="#A93E17" stroke-width="2" stroke-linecap="round" stroke-linejoin="round"/>
<path d="M4.28613 4.28906L14.029 14.0319" stroke="#A93E17" stroke-width="2" stroke-linecap="round" stroke-linejoin="round"/>
<path d="M4.28613 35.7116L14.029 25.9688" stroke="#A93E17" stroke-width="2" stroke-linecap="round" stroke-linejoin="round"/>
<path d="M35.7145 35.7116L25.9717 25.9688" stroke="#A93E17" stroke-width="2" stroke-linecap="round" stroke-linejoin="round"/>
<path d="M20.0001 38.5725C30.2569 38.5725 38.5716 30.2578 38.5716 20.0011C38.5716 9.7444 30.2569 1.42969 20.0001 1.42969C9.74342 1.42969 1.42871 9.7444 1.42871 20.0011C1.42871 30.2578 9.74342 38.5725 20.0001 38.5725Z" stroke="#A93E17" stroke-width="2" stroke-linecap="round" stroke-linejoin="round"/>
<path d="M19.9999 28.4275C24.6548 28.4275 28.4284 24.6539 28.4284 19.9989C28.4284 15.3439 24.6548 11.5703 19.9999 11.5703C15.3449 11.5703 11.5713 15.3439 11.5713 19.9989C11.5713 24.6539 15.3449 28.4275 19.9999 28.4275Z" stroke="#A93E17" stroke-width="2" stroke-linecap="round" stroke-linejoin="round"/>
</g>
<defs>
<clipPath id="clip0_123_3136">
<rect width="40" height="40" fill="white"/>
</clipPath>
</defs>
</svg>
