<svg width="80" height="80" viewBox="0 0 80 80" fill="none" xmlns="http://www.w3.org/2000/svg">
<g opacity="0.1">
<path d="M29.8867 12.8555L32.3438 6.51261C32.7582 5.43869 33.4873 4.51496 34.4355 3.8624C35.3838 3.20983 36.507 2.85887 37.6581 2.85547H42.3438C43.4949 2.85887 44.6181 3.20983 45.5664 3.8624C46.5146 4.51496 47.2437 5.43869 47.6581 6.51261L50.1152 12.8555L58.4581 17.6555L65.2009 16.6269C66.3237 16.4745 67.4664 16.6593 68.4839 17.1579C69.5014 17.6564 70.3477 18.4462 70.9152 19.4269L73.2009 23.4269C73.7866 24.4232 74.0565 25.5736 73.9749 26.7264C73.8933 27.8793 73.464 28.9802 72.7438 29.884L68.5724 35.1983V44.7983L72.8581 50.1126C73.5783 51.0164 74.0076 52.1174 74.0892 53.2702C74.1708 54.423 73.9009 55.5735 73.3152 56.5698L71.0295 60.5698C70.4619 61.5504 69.6157 62.3402 68.5982 62.8388C67.5807 63.3373 66.438 63.5222 65.3152 63.3698L58.5724 62.3412L50.2295 67.1412L47.7724 73.484C47.358 74.558 46.6289 75.4817 45.6807 76.1343C44.7324 76.7868 43.6092 77.1378 42.4581 77.1412H37.6581C36.507 77.1378 35.3838 76.7868 34.4355 76.1343C33.4873 75.4817 32.7582 74.558 32.3438 73.484L29.8867 67.1412L21.5438 62.3412L14.8009 63.3698C13.6782 63.5222 12.5355 63.3373 11.518 62.8388C10.5005 62.3402 9.65421 61.5504 9.08665 60.5698L6.80094 56.5698C6.21523 55.5735 5.94538 54.423 6.02699 53.2702C6.10861 52.1174 6.53785 51.0164 7.25808 50.1126L11.4295 44.7983V35.1983L7.14379 29.884C6.42357 28.9802 5.99432 27.8793 5.91271 26.7264C5.83109 25.5736 6.10095 24.4232 6.68665 23.4269L8.97237 19.4269C9.53993 18.4462 10.3862 17.6564 11.4037 17.1579C12.4212 16.6593 13.5639 16.4745 14.6867 16.6269L21.4295 17.6555L29.8867 12.8555ZM28.5724 39.9983C28.5724 42.2587 29.2426 44.4683 30.4984 46.3477C31.7542 48.2271 33.5391 49.6919 35.6274 50.557C37.7157 51.422 40.0136 51.6483 42.2305 51.2073C44.4475 50.7663 46.4838 49.6779 48.0822 48.0795C49.6805 46.4812 50.7689 44.4449 51.2099 42.2279C51.6509 40.011 51.4246 37.7131 50.5596 35.6248C49.6946 33.5365 48.2297 31.7516 46.3503 30.4958C44.4709 29.24 42.2613 28.5698 40.0009 28.5698C36.9699 28.5698 34.063 29.7738 31.9197 31.9171C29.7764 34.0604 28.5724 36.9673 28.5724 39.9983Z" stroke="white" stroke-width="1.5" stroke-linecap="round" stroke-linejoin="round"/>
</g>
</svg>
