<svg width="30" height="30" viewBox="0 0 30 30" fill="none" xmlns="http://www.w3.org/2000/svg">
<mask id="path-1-inside-1_453_1924" fill="white">
<path d="M27.3633 4.45312H2.63672C1.1799 4.45312 0 5.64035 0 7.08984V22.9102C0 24.3683 1.18857 25.5469 2.63672 25.5469H27.3633C28.8079 25.5469 30 24.3732 30 22.9102V7.08984C30 5.64293 28.8248 4.45312 27.3633 4.45312ZM26.994 6.21094C26.4553 6.74678 17.1846 15.9687 16.8645 16.2871C16.3664 16.7852 15.7043 17.0594 15 17.0594C14.2957 17.0594 13.6336 16.7851 13.1339 16.2855C12.9186 16.0713 3.75018 6.95121 3.00598 6.21094H26.994ZM1.75781 22.5524V7.44873L9.35379 15.0047L1.75781 22.5524ZM3.00709 23.7891L10.6001 16.2444L11.8926 17.5301C12.7226 18.3601 13.8262 18.8172 15 18.8172C16.1738 18.8172 17.2774 18.3601 18.1058 17.5317L19.3999 16.2444L26.9929 23.7891H3.00709ZM28.2422 22.5524L20.6462 15.0047L28.2422 7.44873V22.5524Z"/>
</mask>
<path d="M26.994 6.21094L28.4045 7.62892L31.8408 4.21094H26.994V6.21094ZM16.8645 16.2871L15.454 14.8692L15.4502 14.8729L16.8645 16.2871ZM13.1339 16.2855L14.548 14.8712L14.5444 14.8676L13.1339 16.2855ZM3.00598 6.21094V4.21094H-1.84057L1.59551 7.62889L3.00598 6.21094ZM1.75781 22.5524H-0.242188V27.3591L3.16751 23.9711L1.75781 22.5524ZM1.75781 7.44873L3.16829 6.03079L-0.242188 2.63828L-0.242188 7.44873H1.75781ZM9.35379 15.0047L10.7635 16.4234L12.1905 15.0055L10.7643 13.5867L9.35379 15.0047ZM3.00709 23.7891L1.59739 22.3703L-1.8432 25.7891H3.00709V23.7891ZM10.6001 16.2444L12.0106 14.8264L10.6009 13.4241L9.19038 14.8256L10.6001 16.2444ZM11.8926 17.5301L13.3068 16.1159L13.3031 16.1121L11.8926 17.5301ZM18.1058 17.5317L16.6953 16.1138L16.6915 16.1175L18.1058 17.5317ZM19.3999 16.2444L20.8096 14.8256L19.3991 13.4241L17.9894 14.8264L19.3999 16.2444ZM26.9929 23.7891V25.7891H31.8432L28.4026 22.3703L26.9929 23.7891ZM28.2422 22.5524L26.8325 23.9711L30.2422 27.3591V22.5524H28.2422ZM20.6462 15.0047L19.2357 13.5867L17.8095 15.0055L19.2365 16.4234L20.6462 15.0047ZM28.2422 7.44873H30.2422V2.63828L26.8317 6.03079L28.2422 7.44873ZM27.3633 4.45312V2.45312H2.63672V4.45312V6.45312H27.3633V4.45312ZM2.63672 4.45312V2.45312C0.0717194 2.45312 -2 4.5394 -2 7.08984H0H2C2 6.7413 2.28809 6.45312 2.63672 6.45312V4.45312ZM0 7.08984H-2V22.9102H0H2V7.08984H0ZM0 22.9102H-2C-2 25.4777 0.0889244 27.5469 2.63672 27.5469V25.5469V23.5469C2.28822 23.5469 2 23.2588 2 22.9102H0ZM2.63672 25.5469V27.5469H27.3633V25.5469V23.5469H2.63672V25.5469ZM27.3633 25.5469V27.5469C29.9034 27.5469 32 25.4869 32 22.9102H30H28C28 23.2596 27.7125 23.5469 27.3633 23.5469V25.5469ZM30 22.9102H32V7.08984H30H28V22.9102H30ZM30 7.08984H32C32 4.54557 29.9366 2.45312 27.3633 2.45312V4.45312V6.45312C27.713 6.45312 28 6.74029 28 7.08984H30ZM26.994 6.21094L25.5836 4.79295C25.0449 5.32872 15.7739 14.5509 15.454 14.8692L16.8645 16.2871L18.2749 17.7051C18.5952 17.3865 27.8657 8.16483 28.4045 7.62892L26.994 6.21094ZM16.8645 16.2871L15.4502 14.8729C15.3273 14.9959 15.1739 15.0594 15 15.0594V17.0594V19.0594C16.2347 19.0594 17.4055 18.5745 18.2787 17.7013L16.8645 16.2871ZM15 17.0594V15.0594C14.8271 15.0594 14.6734 14.9965 14.548 14.8712L13.1339 16.2855L11.7198 17.6998C12.5938 18.5737 13.7643 19.0594 15 19.0594V17.0594ZM13.1339 16.2855L14.5444 14.8676C14.3291 14.6534 5.1606 5.53322 4.41645 4.79299L3.00598 6.21094L1.59551 7.62889C2.33975 8.3692 11.5081 17.4893 11.7234 17.7034L13.1339 16.2855ZM3.00598 6.21094V8.21094H26.994V6.21094V4.21094H3.00598V6.21094ZM1.75781 22.5524H3.75781V7.44873H1.75781H-0.242188V22.5524H1.75781ZM1.75781 7.44873L0.347339 8.86667L7.94332 16.4226L9.35379 15.0047L10.7643 13.5867L3.16829 6.03079L1.75781 7.44873ZM9.35379 15.0047L7.94409 13.586L0.348115 21.1337L1.75781 22.5524L3.16751 23.9711L10.7635 16.4234L9.35379 15.0047ZM3.00709 23.7891L4.41679 25.2078L12.0098 17.6631L10.6001 16.2444L9.19038 14.8256L1.59739 22.3703L3.00709 23.7891ZM10.6001 16.2444L9.1896 17.6623L10.4821 18.948L11.8926 17.5301L13.3031 16.1121L12.0106 14.8264L10.6001 16.2444ZM11.8926 17.5301L10.4784 18.9443C11.6835 20.1494 13.2958 20.8172 15 20.8172V18.8172V16.8172C14.3566 16.8172 13.7618 16.5708 13.3068 16.1159L11.8926 17.5301ZM15 18.8172V20.8172C16.7037 20.8172 18.3161 20.1498 19.52 18.9459L18.1058 17.5317L16.6915 16.1175C16.2386 16.5704 15.6439 16.8172 15 16.8172V18.8172ZM18.1058 17.5317L19.5162 18.9497L20.8104 17.6623L19.3999 16.2444L17.9894 14.8264L16.6953 16.1138L18.1058 17.5317ZM19.3999 16.2444L17.9902 17.6631L25.5832 25.2078L26.9929 23.7891L28.4026 22.3703L20.8096 14.8256L19.3999 16.2444ZM26.9929 23.7891V21.7891H3.00709V23.7891V25.7891H26.9929V23.7891ZM28.2422 22.5524L29.6519 21.1337L22.0559 13.586L20.6462 15.0047L19.2365 16.4234L26.8325 23.9711L28.2422 22.5524ZM20.6462 15.0047L22.0567 16.4226L29.6527 8.86667L28.2422 7.44873L26.8317 6.03079L19.2357 13.5867L20.6462 15.0047ZM28.2422 7.44873H26.2422V22.5524H28.2422H30.2422V7.44873H28.2422Z" fill="#A93E17" mask="url(#path-1-inside-1_453_1924)"/>
</svg>
