<svg xmlns="http://www.w3.org/2000/svg" xmlns:xlink="http://www.w3.org/1999/xlink" width="475" zoomAndPan="magnify" viewBox="0 0 356.25 173.999997" height="232" preserveAspectRatio="xMidYMid meet" version="1.2"><defs><clipPath id="b027d303be"><rect x="0" width="306" y="0" height="72"/></clipPath><clipPath id="7d26dcd165"><rect x="0" width="233" y="0" height="76"/></clipPath><clipPath id="a4c80fbcb1"><path d="M 0.121094 8 L 24 8 L 24 37 L 0.121094 37 Z M 0.121094 8 "/></clipPath><clipPath id="ba449d7614"><path d="M 22 19 L 40.835938 19 L 40.835938 43 L 22 43 Z M 22 19 "/></clipPath><clipPath id="20c9d82f43"><rect x="0" width="41" y="0" height="44"/></clipPath></defs><g id="5f43b3d4a8"><g transform="matrix(1,0,0,1,28,83)"><g clip-path="url(#b027d303be)"><g style="fill:#a93e17;fill-opacity:1;"><g transform="translate(0.608937, 51.607395)"><path style="stroke:none" d="M 20.546875 -47.40625 C 23.066406 -47.40625 25.53125 -47.035156 27.9375 -46.296875 C 30.34375 -45.566406 32.128906 -44.847656 33.296875 -44.140625 L 34.984375 -43 L 30.703125 -34.546875 C 30.359375 -34.765625 29.882812 -35.050781 29.28125 -35.40625 C 28.6875 -35.769531 27.5625 -36.25 25.90625 -36.84375 C 24.25 -37.445312 22.707031 -37.75 21.28125 -37.75 C 19.507812 -37.75 18.144531 -37.375 17.1875 -36.625 C 16.226562 -35.875 15.75 -34.859375 15.75 -33.578125 C 15.75 -32.941406 15.972656 -32.347656 16.421875 -31.796875 C 16.867188 -31.253906 17.640625 -30.671875 18.734375 -30.046875 C 19.828125 -29.429688 20.785156 -28.9375 21.609375 -28.5625 C 22.441406 -28.1875 23.722656 -27.617188 25.453125 -26.859375 C 28.460938 -25.585938 31.03125 -23.847656 33.15625 -21.640625 C 35.28125 -19.441406 36.34375 -16.953125 36.34375 -14.171875 C 36.34375 -11.492188 35.863281 -9.15625 34.90625 -7.15625 C 33.945312 -5.164062 32.628906 -3.609375 30.953125 -2.484375 C 29.273438 -1.359375 27.421875 -0.523438 25.390625 0.015625 C 23.359375 0.566406 21.160156 0.84375 18.796875 0.84375 C 16.765625 0.84375 14.769531 0.632812 12.8125 0.21875 C 10.851562 -0.1875 9.210938 -0.695312 7.890625 -1.3125 C 6.578125 -1.9375 5.394531 -2.550781 4.34375 -3.15625 C 3.289062 -3.757812 2.519531 -4.269531 2.03125 -4.6875 L 1.296875 -5.3125 L 6.609375 -14.21875 C 7.054688 -13.84375 7.675781 -13.363281 8.46875 -12.78125 C 9.257812 -12.195312 10.660156 -11.414062 12.671875 -10.4375 C 14.679688 -9.457031 16.457031 -8.96875 18 -8.96875 C 22.476562 -8.96875 24.71875 -10.492188 24.71875 -13.546875 C 24.71875 -14.179688 24.554688 -14.769531 24.234375 -15.3125 C 23.921875 -15.863281 23.359375 -16.410156 22.546875 -16.953125 C 21.734375 -17.503906 21.015625 -17.9375 20.390625 -18.25 C 19.773438 -18.570312 18.757812 -19.0625 17.34375 -19.71875 C 15.9375 -20.382812 14.894531 -20.882812 14.21875 -21.21875 C 11.394531 -22.613281 9.210938 -24.351562 7.671875 -26.4375 C 6.128906 -28.53125 5.359375 -30.78125 5.359375 -33.1875 C 5.359375 -37.363281 6.898438 -40.773438 9.984375 -43.421875 C 13.078125 -46.078125 16.597656 -47.40625 20.546875 -47.40625 Z M 20.546875 -47.40625 "/></g></g><g style="fill:#a93e17;fill-opacity:1;"><g transform="translate(35.765614, 51.607395)"><path style="stroke:none" d="M 1.296875 -23.3125 C 1.296875 -30.039062 3.585938 -35.738281 8.171875 -40.40625 C 12.765625 -45.070312 18.300781 -47.40625 24.78125 -47.40625 C 31.289062 -47.40625 36.820312 -45.082031 41.375 -40.4375 C 45.925781 -35.789062 48.203125 -30.082031 48.203125 -23.3125 C 48.203125 -16.5 45.960938 -10.769531 41.484375 -6.125 C 37.003906 -1.476562 31.4375 0.84375 24.78125 0.84375 C 17.96875 0.84375 12.347656 -1.457031 7.921875 -6.0625 C 3.503906 -10.675781 1.296875 -16.425781 1.296875 -23.3125 Z M 12.75 -23.3125 C 12.75 -20.863281 13.125 -18.628906 13.875 -16.609375 C 14.632812 -14.597656 15.953125 -12.894531 17.828125 -11.5 C 19.710938 -10.113281 22.03125 -9.421875 24.78125 -9.421875 C 28.726562 -9.421875 31.707031 -10.773438 33.71875 -13.484375 C 35.726562 -16.191406 36.734375 -19.46875 36.734375 -23.3125 C 36.734375 -27.113281 35.707031 -30.375 33.65625 -33.09375 C 31.613281 -35.820312 28.65625 -37.1875 24.78125 -37.1875 C 20.9375 -37.1875 17.96875 -35.820312 15.875 -33.09375 C 13.789062 -30.375 12.75 -27.113281 12.75 -23.3125 Z M 12.75 -23.3125 "/></g></g><g style="fill:#a93e17;fill-opacity:1;"><g transform="translate(82.490783, 51.607395)"><path style="stroke:none" d="M 39.171875 -46.5625 L 39.171875 -16.53125 C 39.171875 -10.8125 37.625 -6.484375 34.53125 -3.546875 C 31.445312 -0.617188 26.929688 0.84375 20.984375 0.84375 C 15.046875 0.84375 10.535156 -0.617188 7.453125 -3.546875 C 4.367188 -6.484375 2.828125 -10.8125 2.828125 -16.53125 L 2.828125 -46.5625 L 13.4375 -46.5625 L 13.4375 -19.640625 C 13.4375 -15.878906 14.023438 -13.265625 15.203125 -11.796875 C 16.390625 -10.328125 18.316406 -9.59375 20.984375 -9.59375 C 23.660156 -9.59375 25.59375 -10.328125 26.78125 -11.796875 C 27.96875 -13.265625 28.5625 -15.878906 28.5625 -19.640625 L 28.5625 -46.5625 Z M 39.171875 -46.5625 "/></g></g><g style="fill:#a93e17;fill-opacity:1;"><g transform="translate(121.710536, 51.607395)"><path style="stroke:none" d="M 14 -46.5625 L 14 -9.3125 L 30.03125 -9.3125 L 30.03125 0 L 3.390625 0 L 3.390625 -46.5625 Z M 14 -46.5625 "/></g></g><g style="fill:#a93e17;fill-opacity:1;"><g transform="translate(150.829024, 51.607395)"><path style="stroke:none" d="M 41.875 0 L 39.671875 -27.59375 L 39.390625 -27.59375 L 29.859375 -0.28125 L 23.53125 -0.28125 L 14 -27.59375 L 13.71875 -27.59375 L 11.515625 0 L 0.90625 0 L 5.078125 -46.5625 L 16.359375 -46.5625 L 26.6875 -19.703125 L 37.015625 -46.5625 L 48.3125 -46.5625 L 52.484375 0 Z M 41.875 0 "/></g></g><g style="fill:#a93e17;fill-opacity:1;"><g transform="translate(201.447973, 51.607395)"><path style="stroke:none" d="M 27.03125 -46.5625 L 45.828125 0 L 34.421875 0 L 30.984375 -9.3125 L 13.265625 -9.3125 L 9.8125 0 L -1.578125 0 L 17.21875 -46.5625 Z M 27.375 -18.625 L 22.1875 -32.171875 L 22.0625 -32.171875 L 16.875 -18.625 Z M 27.375 -18.625 "/></g></g><g style="fill:#a93e17;fill-opacity:1;"><g transform="translate(242.925001, 51.607395)"><path style="stroke:none" d="M 0.453125 -37.25 L 0.453125 -46.5625 L 33.1875 -46.5625 L 33.1875 -37.25 L 22.125 -37.25 L 22.125 0 L 11.515625 0 L 11.515625 -37.25 Z M 0.453125 -37.25 "/></g></g><g style="fill:#a93e17;fill-opacity:1;"><g transform="translate(273.79288, 51.607395)"><path style="stroke:none" d="M 30.03125 -46.5625 L 30.03125 -37.25 L 14 -37.25 L 14 -28 L 29.34375 -28 L 29.34375 -18.6875 L 14 -18.6875 L 14 -9.3125 L 30.03125 -9.3125 L 30.03125 0 L 3.390625 0 L 3.390625 -46.5625 Z M 30.03125 -46.5625 "/></g></g></g></g><g transform="matrix(1,0,0,1,26,20)"><g clip-path="url(#7d26dcd165)"><g style="fill:#a93e17;fill-opacity:1;"><g transform="translate(1.540807, 53.947448)"><path style="stroke:none" d="M 21.65625 -49.984375 C 24.3125 -49.984375 26.910156 -49.59375 29.453125 -48.8125 C 31.992188 -48.039062 33.878906 -47.28125 35.109375 -46.53125 L 36.890625 -45.34375 L 32.375 -36.40625 C 32.007812 -36.644531 31.507812 -36.953125 30.875 -37.328125 C 30.238281 -37.710938 29.046875 -38.222656 27.296875 -38.859375 C 25.554688 -39.492188 23.9375 -39.8125 22.4375 -39.8125 C 20.570312 -39.8125 19.128906 -39.410156 18.109375 -38.609375 C 17.097656 -37.816406 16.59375 -36.75 16.59375 -35.40625 C 16.59375 -34.726562 16.832031 -34.101562 17.3125 -33.53125 C 17.789062 -32.957031 18.601562 -32.34375 19.75 -31.6875 C 20.90625 -31.03125 21.914062 -30.503906 22.78125 -30.109375 C 23.65625 -29.710938 25.003906 -29.117188 26.828125 -28.328125 C 30.003906 -26.972656 32.710938 -25.132812 34.953125 -22.8125 C 37.191406 -20.5 38.3125 -17.875 38.3125 -14.9375 C 38.3125 -12.113281 37.804688 -9.648438 36.796875 -7.546875 C 35.785156 -5.453125 34.394531 -3.804688 32.625 -2.609375 C 30.863281 -1.421875 28.910156 -0.539062 26.765625 0.03125 C 24.628906 0.601562 22.3125 0.890625 19.8125 0.890625 C 17.664062 0.890625 15.5625 0.671875 13.5 0.234375 C 11.4375 -0.203125 9.710938 -0.742188 8.328125 -1.390625 C 6.941406 -2.046875 5.691406 -2.691406 4.578125 -3.328125 C 3.472656 -3.960938 2.660156 -4.5 2.140625 -4.9375 L 1.375 -5.59375 L 6.96875 -15 C 7.4375 -14.601562 8.085938 -14.09375 8.921875 -13.46875 C 9.753906 -12.851562 11.234375 -12.03125 13.359375 -11 C 15.484375 -9.96875 17.359375 -9.453125 18.984375 -9.453125 C 23.703125 -9.453125 26.0625 -11.0625 26.0625 -14.28125 C 26.0625 -14.957031 25.890625 -15.582031 25.546875 -16.15625 C 25.210938 -16.726562 24.617188 -17.300781 23.765625 -17.875 C 22.910156 -18.457031 22.15625 -18.914062 21.5 -19.25 C 20.851562 -19.582031 19.785156 -20.097656 18.296875 -20.796875 C 16.804688 -21.492188 15.707031 -22.019531 15 -22.375 C 12.019531 -23.84375 9.71875 -25.675781 8.09375 -27.875 C 6.46875 -30.070312 5.65625 -32.441406 5.65625 -34.984375 C 5.65625 -39.390625 7.28125 -42.988281 10.53125 -45.78125 C 13.78125 -48.582031 17.488281 -49.984375 21.65625 -49.984375 Z M 21.65625 -49.984375 "/></g></g><g style="fill:#a93e17;fill-opacity:1;"><g transform="translate(38.602923, 53.947448)"><path style="stroke:none" d="M 48.25 0 L 32.84375 0 L 14.75 -20.828125 L 14.75 0 L 3.5625 0 L 3.5625 -49.09375 L 14.75 -49.09375 L 14.75 -29.03125 L 31.59375 -49.09375 L 45.15625 -49.09375 L 25.40625 -25.828125 Z M 48.25 0 "/></g></g><g style="fill:#a93e17;fill-opacity:1;"><g transform="translate(82.506407, 53.947448)"><path style="stroke:none" d="M 31.65625 -49.09375 L 31.65625 -39.265625 L 14.75 -39.265625 L 14.75 -29.515625 L 30.9375 -29.515625 L 30.9375 -19.6875 L 14.75 -19.6875 L 14.75 -9.8125 L 31.65625 -9.8125 L 31.65625 0 L 3.5625 0 L 3.5625 -49.09375 Z M 31.65625 -49.09375 "/></g></g><g style="fill:#a93e17;fill-opacity:1;"><g transform="translate(114.095431, 53.947448)"><path style="stroke:none" d="M 0.46875 -39.265625 L 0.46875 -49.09375 L 34.984375 -49.09375 L 34.984375 -39.265625 L 23.328125 -39.265625 L 23.328125 0 L 12.140625 0 L 12.140625 -39.265625 Z M 0.46875 -39.265625 "/></g></g><g style="fill:#a93e17;fill-opacity:1;"><g transform="translate(146.636291, 53.947448)"><path style="stroke:none" d="M 29.6875 -10.109375 C 31.394531 -10.109375 33.050781 -10.363281 34.65625 -10.875 C 36.257812 -11.394531 37.441406 -11.894531 38.203125 -12.375 L 39.328125 -13.15625 L 44.09375 -3.625 C 43.925781 -3.507812 43.703125 -3.351562 43.421875 -3.15625 C 43.148438 -2.957031 42.507812 -2.585938 41.5 -2.046875 C 40.488281 -1.515625 39.40625 -1.050781 38.25 -0.65625 C 37.101562 -0.257812 35.597656 0.09375 33.734375 0.40625 C 31.867188 0.726562 29.945312 0.890625 27.96875 0.890625 C 23.40625 0.890625 19.078125 -0.226562 14.984375 -2.46875 C 10.898438 -4.707031 7.609375 -7.789062 5.109375 -11.71875 C 2.617188 -15.644531 1.375 -19.890625 1.375 -24.453125 C 1.375 -27.898438 2.101562 -31.210938 3.5625 -34.390625 C 5.03125 -37.566406 6.984375 -40.285156 9.421875 -42.546875 C 11.867188 -44.804688 14.71875 -46.609375 17.96875 -47.953125 C 21.21875 -49.304688 24.550781 -49.984375 27.96875 -49.984375 C 31.132812 -49.984375 34.054688 -49.601562 36.734375 -48.84375 C 39.410156 -48.09375 41.304688 -47.34375 42.421875 -46.59375 L 44.09375 -45.453125 L 39.328125 -35.9375 C 39.046875 -36.175781 38.628906 -36.460938 38.078125 -36.796875 C 37.523438 -37.140625 36.414062 -37.585938 34.75 -38.140625 C 33.082031 -38.691406 31.394531 -38.96875 29.6875 -38.96875 C 26.988281 -38.96875 24.566406 -38.53125 22.421875 -37.65625 C 20.285156 -36.789062 18.59375 -35.644531 17.34375 -34.21875 C 16.09375 -32.789062 15.140625 -31.25 14.484375 -29.59375 C 13.828125 -27.945312 13.5 -26.273438 13.5 -24.578125 C 13.5 -20.847656 14.894531 -17.503906 17.6875 -14.546875 C 20.488281 -11.585938 24.488281 -10.109375 29.6875 -10.109375 Z M 29.6875 -10.109375 "/></g></g><g style="fill:#a93e17;fill-opacity:1;"><g transform="translate(188.517106, 53.947448)"><path style="stroke:none" d="M 14.75 -19.6875 L 14.75 0 L 3.5625 0 L 3.5625 -49.09375 L 14.75 -49.09375 L 14.75 -29.515625 L 30.578125 -29.515625 L 30.578125 -49.09375 L 41.765625 -49.09375 L 41.765625 0 L 30.578125 0 L 30.578125 -19.6875 Z M 14.75 -19.6875 "/></g></g></g></g><g transform="matrix(1,0,0,1,265,29)"><g clip-path="url(#20c9d82f43)"><g clip-rule="nonzero" clip-path="url(#a4c80fbcb1)"><g style="fill:#15399a;fill-opacity:1;"><g transform="translate(0.451349, 29.415995)"><path style="stroke:none" d="M 21.03125 4.78125 C 21.125 4.75 21.285156 4.679688 21.515625 4.578125 C 21.742188 4.472656 21.960938 4.390625 22.171875 4.328125 C 22.378906 4.273438 22.492188 4.320312 22.515625 4.46875 C 22.546875 4.625 22.488281 4.800781 22.34375 5 C 22.207031 5.195312 22.050781 5.378906 21.875 5.546875 C 21.695312 5.710938 21.554688 5.847656 21.453125 5.953125 C 20.960938 6.347656 20.414062 6.617188 19.8125 6.765625 C 19.195312 6.929688 18.644531 6.910156 18.15625 6.703125 C 17.675781 6.503906 17.238281 6.148438 16.84375 5.640625 C 16.300781 4.921875 15.945312 4.171875 15.78125 3.390625 C 15.625 2.617188 15.59375 1.828125 15.6875 1.015625 C 15.78125 0.203125 15.941406 -0.597656 16.171875 -1.390625 C 16.171875 -1.390625 16.175781 -1.488281 16.1875 -1.6875 C 16.207031 -1.882812 16.25 -2 16.3125 -2.03125 C 16.3125 -2.019531 16.304688 -1.96875 16.296875 -1.875 C 16.285156 -1.78125 16.269531 -1.703125 16.25 -1.640625 L 16.390625 -2.15625 C 16.390625 -2.132812 16.375 -2.125 16.34375 -2.125 C 16.300781 -2.289062 16.335938 -2.515625 16.453125 -2.796875 C 16.566406 -3.085938 16.648438 -3.304688 16.703125 -3.453125 L 17.328125 -4.875 C 17.515625 -5.289062 17.6875 -5.695312 17.84375 -6.09375 C 18.007812 -6.5 18.164062 -6.910156 18.3125 -7.328125 C 18.46875 -7.804688 18.660156 -8.265625 18.890625 -8.703125 C 19.128906 -9.148438 19.351562 -9.585938 19.5625 -10.015625 C 19.601562 -10.078125 19.675781 -10.226562 19.78125 -10.46875 C 19.894531 -10.71875 20.007812 -10.953125 20.125 -11.171875 C 20.238281 -11.398438 20.316406 -11.507812 20.359375 -11.5 C 20.359375 -11.5 20.335938 -11.441406 20.296875 -11.328125 C 20.265625 -11.210938 20.253906 -11.144531 20.265625 -11.125 C 20.359375 -11.375 20.453125 -11.617188 20.546875 -11.859375 C 20.648438 -12.109375 20.738281 -12.351562 20.8125 -12.59375 L 20.609375 -12.203125 C 20.609375 -12.335938 20.648438 -12.507812 20.734375 -12.71875 C 20.816406 -12.925781 20.875 -13.125 20.90625 -13.3125 C 20.9375 -13.5 20.847656 -13.609375 20.640625 -13.640625 C 20.390625 -13.703125 20.113281 -13.601562 19.8125 -13.34375 C 19.507812 -13.09375 19.285156 -12.890625 19.140625 -12.734375 C 18.492188 -12.148438 17.910156 -11.523438 17.390625 -10.859375 C 16.878906 -10.203125 16.378906 -9.519531 15.890625 -8.8125 C 15.640625 -8.46875 15.398438 -8.128906 15.171875 -7.796875 C 14.941406 -7.460938 14.675781 -7.148438 14.375 -6.859375 C 14.1875 -6.679688 14.023438 -6.457031 13.890625 -6.1875 C 13.765625 -5.914062 13.628906 -5.664062 13.484375 -5.4375 C 13.234375 -5.019531 12.988281 -4.609375 12.75 -4.203125 C 12.519531 -3.796875 12.28125 -3.394531 12.03125 -3 C 11.863281 -2.695312 11.675781 -2.398438 11.46875 -2.109375 C 11.257812 -1.816406 11.097656 -1.507812 10.984375 -1.1875 C 10.890625 -0.925781 10.785156 -0.691406 10.671875 -0.484375 C 10.554688 -0.273438 10.410156 -0.160156 10.234375 -0.140625 C 10.054688 -0.117188 9.816406 -0.242188 9.515625 -0.515625 C 9.097656 -0.921875 8.859375 -1.382812 8.796875 -1.90625 C 8.742188 -2.425781 8.773438 -2.953125 8.890625 -3.484375 C 9.210938 -5.085938 9.75 -6.65625 10.5 -8.1875 C 11.257812 -9.726562 12.046875 -11.191406 12.859375 -12.578125 C 13.210938 -13.179688 13.539062 -13.804688 13.84375 -14.453125 C 14.144531 -15.109375 14.421875 -15.753906 14.671875 -16.390625 C 14.703125 -16.503906 14.75 -16.644531 14.8125 -16.8125 C 14.882812 -16.988281 14.863281 -17.09375 14.75 -17.125 C 14.613281 -17.1875 14.410156 -17.125 14.140625 -16.9375 C 13.867188 -16.757812 13.6875 -16.632812 13.59375 -16.5625 C 12.945312 -16.09375 12.359375 -15.546875 11.828125 -14.921875 C 11.304688 -14.296875 10.800781 -13.664062 10.3125 -13.03125 C 9.8125 -12.382812 9.332031 -11.71875 8.875 -11.03125 C 8.414062 -10.351562 7.957031 -9.664062 7.5 -8.96875 C 7.03125 -8.257812 6.5625 -7.535156 6.09375 -6.796875 C 5.632812 -6.054688 5.179688 -5.320312 4.734375 -4.59375 C 4.523438 -4.226562 4.3125 -3.867188 4.09375 -3.515625 C 3.875 -3.171875 3.6875 -2.8125 3.53125 -2.4375 C 3.382812 -2.070312 3.242188 -1.710938 3.109375 -1.359375 C 2.984375 -1.003906 2.84375 -0.632812 2.6875 -0.25 C 2.613281 -0.03125 2.535156 0.226562 2.453125 0.53125 C 2.367188 0.832031 2.25 1.085938 2.09375 1.296875 C 1.90625 1.546875 1.65625 1.671875 1.34375 1.671875 C 1.03125 1.671875 0.753906 1.578125 0.515625 1.390625 C 0.304688 1.210938 0.160156 1 0.078125 0.75 C 0.00390625 0.5 -0.0195312 0.238281 0 -0.03125 C 0.0390625 -0.800781 0.203125 -1.59375 0.484375 -2.40625 C 0.765625 -3.21875 1.054688 -3.972656 1.359375 -4.671875 C 1.660156 -5.390625 1.960938 -6.09375 2.265625 -6.78125 C 2.566406 -7.46875 2.847656 -8.171875 3.109375 -8.890625 C 3.660156 -10.359375 4.273438 -11.816406 4.953125 -13.265625 C 5.628906 -14.710938 6.175781 -16.195312 6.59375 -17.71875 L 6.59375 -17.4375 L 6.765625 -18.484375 C 6.828125 -18.828125 6.820312 -19.128906 6.75 -19.390625 C 6.6875 -19.660156 6.4375 -19.75 6 -19.65625 C 5.695312 -19.570312 5.410156 -19.425781 5.140625 -19.21875 C 4.878906 -19.007812 4.644531 -18.785156 4.4375 -18.546875 C 3.9375 -18.015625 3.492188 -17.410156 3.109375 -16.734375 C 2.734375 -16.066406 2.414062 -15.382812 2.15625 -14.6875 C 2.09375 -14.5625 2.039062 -14.40625 2 -14.21875 C 1.96875 -14.03125 1.941406 -13.882812 1.921875 -13.78125 C 1.898438 -13.675781 1.894531 -13.570312 1.90625 -13.46875 C 1.914062 -13.363281 1.875 -13.265625 1.78125 -13.171875 C 1.613281 -13.035156 1.441406 -13.003906 1.265625 -13.078125 C 1.097656 -13.148438 0.957031 -13.265625 0.84375 -13.421875 C 0.625 -13.765625 0.515625 -14.175781 0.515625 -14.65625 C 0.515625 -15.132812 0.5625 -15.5625 0.65625 -15.9375 C 0.75 -16.28125 0.898438 -16.585938 1.109375 -16.859375 C 1.316406 -17.128906 1.484375 -17.414062 1.609375 -17.71875 C 1.648438 -17.8125 1.679688 -17.914062 1.703125 -18.03125 C 1.722656 -18.144531 1.769531 -18.257812 1.84375 -18.375 L 2.125 -18.765625 C 2.425781 -19.109375 2.75 -19.429688 3.09375 -19.734375 C 3.75 -20.285156 4.472656 -20.679688 5.265625 -20.921875 C 5.722656 -21.078125 6.179688 -21.140625 6.640625 -21.109375 C 7.097656 -21.078125 7.507812 -20.875 7.875 -20.5 C 8.09375 -20.25 8.269531 -19.9375 8.40625 -19.5625 C 8.539062 -19.1875 8.644531 -18.835938 8.71875 -18.515625 C 8.8125 -18.078125 8.8125 -17.601562 8.71875 -17.09375 C 8.625 -16.59375 8.507812 -16.132812 8.375 -15.71875 C 8.25 -15.300781 8.125 -14.882812 8 -14.46875 C 7.875 -14.050781 7.738281 -13.632812 7.59375 -13.21875 C 7.457031 -12.820312 7.316406 -12.429688 7.171875 -12.046875 C 7.035156 -11.660156 6.890625 -11.269531 6.734375 -10.875 C 6.617188 -10.570312 6.523438 -10.269531 6.453125 -9.96875 C 6.378906 -9.664062 6.296875 -9.351562 6.203125 -9.03125 C 6.929688 -10.1875 7.703125 -11.335938 8.515625 -12.484375 C 9.328125 -13.640625 10.207031 -14.71875 11.15625 -15.71875 C 11.34375 -15.90625 11.570312 -16.164062 11.84375 -16.5 C 12.125 -16.84375 12.429688 -17.179688 12.765625 -17.515625 C 13.109375 -17.859375 13.457031 -18.140625 13.8125 -18.359375 C 14.175781 -18.578125 14.535156 -18.679688 14.890625 -18.671875 C 15.253906 -18.660156 15.585938 -18.46875 15.890625 -18.09375 C 16.242188 -17.65625 16.472656 -17.132812 16.578125 -16.53125 C 16.679688 -15.925781 16.628906 -15.359375 16.421875 -14.828125 C 16.234375 -14.359375 15.984375 -13.898438 15.671875 -13.453125 C 15.359375 -13.015625 15.097656 -12.5625 14.890625 -12.09375 C 14.347656 -10.820312 13.773438 -9.5625 13.171875 -8.3125 C 12.578125 -7.070312 12.082031 -5.78125 11.6875 -4.4375 C 12.195312 -5.332031 12.722656 -6.210938 13.265625 -7.078125 C 13.804688 -7.941406 14.367188 -8.789062 14.953125 -9.625 C 14.816406 -9.4375 14.664062 -9.238281 14.5 -9.03125 C 14.34375 -8.820312 14.203125 -8.613281 14.078125 -8.40625 C 14.335938 -8.800781 14.566406 -9.148438 14.765625 -9.453125 C 14.960938 -9.753906 15.085938 -9.941406 15.140625 -10.015625 C 15.640625 -10.703125 16.15625 -11.367188 16.6875 -12.015625 C 17.226562 -12.671875 17.816406 -13.28125 18.453125 -13.84375 C 18.796875 -14.164062 19.1875 -14.472656 19.625 -14.765625 C 20.070312 -15.054688 20.539062 -15.203125 21.03125 -15.203125 C 21.613281 -15.222656 22.082031 -15.015625 22.4375 -14.578125 C 22.800781 -14.148438 23.03125 -13.671875 23.125 -13.140625 C 23.28125 -12.328125 23.234375 -11.523438 22.984375 -10.734375 C 22.742188 -9.953125 22.425781 -9.191406 22.03125 -8.453125 C 21.632812 -7.722656 21.265625 -7.007812 20.921875 -6.3125 C 20.992188 -6.445312 21.0625 -6.515625 21.125 -6.515625 C 21.125 -6.515625 21.085938 -6.421875 21.015625 -6.234375 C 20.953125 -6.046875 20.867188 -5.820312 20.765625 -5.5625 C 20.660156 -5.3125 20.566406 -5.082031 20.484375 -4.875 C 20.398438 -4.664062 20.347656 -4.539062 20.328125 -4.5 C 20.160156 -4.101562 19.992188 -3.707031 19.828125 -3.3125 C 19.671875 -2.914062 19.507812 -2.53125 19.34375 -2.15625 C 19.039062 -1.414062 18.75 -0.675781 18.46875 0.0625 C 18.195312 0.8125 17.976562 1.570312 17.8125 2.34375 C 17.75 2.59375 17.6875 2.878906 17.625 3.203125 C 17.570312 3.523438 17.578125 3.832031 17.640625 4.125 C 17.710938 4.414062 17.878906 4.632812 18.140625 4.78125 C 18.546875 4.988281 19.03125 5.070312 19.59375 5.03125 C 20.15625 5 20.632812 4.914062 21.03125 4.78125 Z M 17.265625 -3.703125 C 17.046875 -3.234375 16.867188 -2.765625 16.734375 -2.296875 C 16.597656 -1.835938 16.457031 -1.375 16.3125 -0.90625 C 16.457031 -1.34375 16.613281 -1.765625 16.78125 -2.171875 C 16.957031 -2.585938 17.140625 -3.003906 17.328125 -3.421875 C 17.554688 -3.910156 17.789062 -4.425781 18.03125 -4.96875 C 18.28125 -5.507812 18.453125 -6.035156 18.546875 -6.546875 C 18.617188 -6.710938 18.617188 -6.804688 18.546875 -6.828125 C 18.410156 -6.648438 18.304688 -6.398438 18.234375 -6.078125 C 18.160156 -5.765625 18.078125 -5.503906 17.984375 -5.296875 C 17.867188 -5.023438 17.753906 -4.757812 17.640625 -4.5 C 17.523438 -4.238281 17.398438 -3.972656 17.265625 -3.703125 Z M 4.734375 -12.171875 C 4.484375 -11.585938 4.238281 -11.003906 4 -10.421875 C 3.769531 -9.847656 3.539062 -9.257812 3.3125 -8.65625 C 3.570312 -9.300781 3.832031 -9.9375 4.09375 -10.5625 C 4.363281 -11.1875 4.648438 -11.800781 4.953125 -12.40625 C 5.273438 -13.039062 5.546875 -13.6875 5.765625 -14.34375 C 5.984375 -15.007812 6.175781 -15.675781 6.34375 -16.34375 C 6.269531 -16.113281 6.1875 -15.890625 6.09375 -15.671875 C 6.007812 -15.453125 5.921875 -15.238281 5.828125 -15.03125 C 5.640625 -14.5625 5.460938 -14.082031 5.296875 -13.59375 C 5.128906 -13.113281 4.941406 -12.640625 4.734375 -12.171875 Z M 13.78125 -7.984375 C 13.65625 -7.753906 13.472656 -7.445312 13.234375 -7.0625 C 12.992188 -6.675781 12.78125 -6.332031 12.59375 -6.03125 C 12.40625 -5.726562 12.296875 -5.578125 12.265625 -5.578125 C 12.265625 -5.578125 12.425781 -5.832031 12.75 -6.34375 C 13.082031 -6.851562 13.425781 -7.398438 13.78125 -7.984375 Z M 18.09375 -13.390625 C 17.90625 -13.222656 17.722656 -13.046875 17.546875 -12.859375 C 17.378906 -12.679688 17.210938 -12.488281 17.046875 -12.28125 Z M 16.078125 0 C 16.140625 -0.113281 16.140625 -0.179688 16.078125 -0.203125 C 16.003906 -0.0859375 16.003906 -0.0195312 16.078125 0 Z M 16.765625 -11.953125 L 16.84375 -12.03125 L 16.875 -12.09375 L 16.90625 -12.125 C 16.90625 -12.101562 16.898438 -12.09375 16.890625 -12.09375 C 16.878906 -12.09375 16.875 -12.09375 16.875 -12.09375 L 16.984375 -12.203125 L 17.046875 -12.28125 L 16.984375 -12.234375 C 16.960938 -12.210938 16.9375 -12.179688 16.90625 -12.140625 C 16.882812 -12.109375 16.851562 -12.0625 16.8125 -12 L 16.8125 -12.03125 Z M 13.84375 -8.0625 L 13.953125 -8.203125 L 13.953125 -8.234375 Z M 13.78125 -7.984375 C 13.820312 -8.023438 13.84375 -8.050781 13.84375 -8.0625 Z M 16.953125 -12.203125 C 16.972656 -12.203125 16.984375 -12.207031 16.984375 -12.21875 C 16.984375 -12.226562 16.984375 -12.234375 16.984375 -12.234375 Z M 16.953125 -12.203125 "/></g></g></g><g clip-rule="nonzero" clip-path="url(#ba449d7614)"><g style="fill:#15399a;fill-opacity:1;"><g transform="translate(24.034053, 29.415995)"><path style="stroke:none" d="M 16.5 -6.765625 C 16.539062 -6.503906 16.460938 -6.296875 16.265625 -6.140625 C 16.066406 -5.992188 15.875 -5.84375 15.6875 -5.6875 L 13.21875 -3.734375 C 12.789062 -3.378906 12.359375 -3.015625 11.921875 -2.640625 C 11.484375 -2.273438 11.046875 -1.90625 10.609375 -1.53125 C 10.441406 -1.375 10.238281 -1.210938 10 -1.046875 C 9.769531 -0.878906 9.578125 -0.691406 9.421875 -0.484375 C 9.296875 -0.296875 9.191406 -0.0234375 9.109375 0.328125 C 9.035156 0.691406 8.953125 1 8.859375 1.25 C 8.328125 2.90625 7.78125 4.570312 7.21875 6.25 C 6.65625 7.9375 5.921875 9.535156 5.015625 11.046875 C 4.734375 11.492188 4.441406 11.925781 4.140625 12.34375 C 3.847656 12.757812 3.410156 13.039062 2.828125 13.1875 C 2.191406 13.363281 1.550781 13.3125 0.90625 13.03125 C 0.257812 12.757812 -0.25 12.359375 -0.625 11.828125 C -1 11.335938 -1.148438 10.828125 -1.078125 10.296875 C -1.003906 9.773438 -0.816406 9.265625 -0.515625 8.765625 C -0.210938 8.265625 0.0859375 7.816406 0.390625 7.421875 C 0.828125 6.835938 1.269531 6.253906 1.71875 5.671875 C 2.175781 5.097656 2.648438 4.546875 3.140625 4.015625 C 3.503906 3.640625 3.875 3.273438 4.25 2.921875 C 4.625 2.578125 5 2.226562 5.375 1.875 C 5.644531 1.601562 5.972656 1.3125 6.359375 1 C 6.742188 0.6875 7.03125 0.363281 7.21875 0.03125 C 7.445312 -0.40625 7.617188 -0.882812 7.734375 -1.40625 C 7.859375 -1.9375 8 -2.441406 8.15625 -2.921875 C 8.269531 -3.316406 8.382812 -3.710938 8.5 -4.109375 C 8.625 -4.503906 8.753906 -4.898438 8.890625 -5.296875 C 8.660156 -5.128906 8.445312 -4.898438 8.25 -4.609375 C 8.050781 -4.328125 7.847656 -4.082031 7.640625 -3.875 L 5.78125 -2.015625 C 5.476562 -1.710938 5.148438 -1.410156 4.796875 -1.109375 C 4.453125 -0.804688 4.070312 -0.566406 3.65625 -0.390625 C 3.59375 -0.378906 3.460938 -0.328125 3.265625 -0.234375 C 3.066406 -0.148438 2.882812 -0.078125 2.71875 -0.015625 C 2.550781 0.046875 2.457031 0.078125 2.4375 0.078125 L 2.484375 0.03125 L 2.328125 0.078125 C 2.421875 0.078125 2.378906 0.113281 2.203125 0.1875 C 2.035156 0.269531 1.925781 0.3125 1.875 0.3125 C 1.550781 0.363281 1.25 0.316406 0.96875 0.171875 C 0.695312 0.015625 0.476562 -0.210938 0.3125 -0.515625 C 0.144531 -0.816406 0.0390625 -1.109375 0 -1.390625 C 0 -1.460938 0.0078125 -1.660156 0.03125 -1.984375 C 0.0507812 -2.304688 0.0859375 -2.617188 0.140625 -2.921875 C 0.191406 -3.234375 0.269531 -3.382812 0.375 -3.375 C 0.40625 -3.375 0.410156 -3.34375 0.390625 -3.28125 C 0.378906 -3.226562 0.378906 -3.191406 0.390625 -3.171875 C 0.410156 -3.265625 0.429688 -3.367188 0.453125 -3.484375 C 0.472656 -3.597656 0.492188 -3.703125 0.515625 -3.796875 L 0.453125 -3.734375 C 0.410156 -3.734375 0.429688 -3.878906 0.515625 -4.171875 C 0.609375 -4.460938 0.710938 -4.804688 0.828125 -5.203125 C 0.953125 -5.597656 1.070312 -5.957031 1.1875 -6.28125 C 1.300781 -6.601562 1.367188 -6.796875 1.390625 -6.859375 C 1.503906 -7.140625 1.613281 -7.429688 1.71875 -7.734375 C 1.820312 -8.035156 1.945312 -8.316406 2.09375 -8.578125 C 2.15625 -8.671875 2.21875 -8.738281 2.28125 -8.78125 C 2.34375 -8.832031 2.394531 -8.894531 2.4375 -8.96875 C 2.46875 -9.007812 2.503906 -9.066406 2.546875 -9.140625 C 2.585938 -9.222656 2.625 -9.289062 2.65625 -9.34375 C 2.8125 -9.664062 3.0625 -9.910156 3.40625 -10.078125 C 3.757812 -10.242188 4.101562 -10.253906 4.4375 -10.109375 C 4.59375 -10.046875 4.75 -9.929688 4.90625 -9.765625 C 5.070312 -9.597656 5.132812 -9.421875 5.09375 -9.234375 C 5.070312 -9.148438 5.03125 -9.082031 4.96875 -9.03125 C 4.90625 -8.988281 4.851562 -8.941406 4.8125 -8.890625 C 4.832031 -8.890625 4.847656 -8.894531 4.859375 -8.90625 C 4.867188 -8.914062 4.878906 -8.921875 4.890625 -8.921875 C 4.929688 -8.921875 4.914062 -8.835938 4.84375 -8.671875 C 4.78125 -8.515625 4.710938 -8.359375 4.640625 -8.203125 C 4.566406 -8.054688 4.507812 -7.984375 4.46875 -7.984375 C 4.445312 -7.984375 4.445312 -8.023438 4.46875 -8.109375 C 4.488281 -8.191406 4.507812 -8.265625 4.53125 -8.328125 C 4.226562 -7.679688 3.929688 -7.019531 3.640625 -6.34375 C 3.347656 -5.664062 3.085938 -4.976562 2.859375 -4.28125 C 2.910156 -4.40625 2.992188 -4.613281 3.109375 -4.90625 C 3.222656 -5.195312 3.347656 -5.503906 3.484375 -5.828125 C 3.628906 -6.148438 3.753906 -6.425781 3.859375 -6.65625 C 3.960938 -6.882812 4.023438 -7 4.046875 -7 C 4.066406 -7 3.988281 -6.804688 3.8125 -6.421875 C 3.644531 -6.046875 3.441406 -5.578125 3.203125 -5.015625 C 2.972656 -4.460938 2.769531 -3.898438 2.59375 -3.328125 C 2.414062 -2.765625 2.320312 -2.273438 2.3125 -1.859375 C 2.300781 -1.453125 2.425781 -1.203125 2.6875 -1.109375 C 2.851562 -1.046875 3.046875 -1.082031 3.265625 -1.21875 C 3.484375 -1.351562 3.703125 -1.515625 3.921875 -1.703125 C 4.140625 -1.890625 4.296875 -2.019531 4.390625 -2.09375 C 4.765625 -2.394531 5.171875 -2.707031 5.609375 -3.03125 C 6.054688 -3.363281 6.429688 -3.691406 6.734375 -4.015625 C 6.710938 -3.992188 6.679688 -3.972656 6.640625 -3.953125 C 6.609375 -3.941406 6.578125 -3.9375 6.546875 -3.9375 C 6.546875 -3.9375 6.613281 -4.019531 6.75 -4.1875 C 6.894531 -4.351562 7.0625 -4.546875 7.25 -4.765625 C 7.4375 -4.984375 7.609375 -5.191406 7.765625 -5.390625 C 7.929688 -5.585938 8.039062 -5.71875 8.09375 -5.78125 C 8.34375 -6.039062 8.628906 -6.328125 8.953125 -6.640625 C 9.285156 -6.953125 9.507812 -7.285156 9.625 -7.640625 C 9.6875 -7.847656 9.753906 -8.019531 9.828125 -8.15625 C 9.898438 -8.289062 10.085938 -8.382812 10.390625 -8.4375 C 10.734375 -8.488281 11.109375 -8.4375 11.515625 -8.28125 C 11.921875 -8.125 12.160156 -7.851562 12.234375 -7.46875 C 12.265625 -7.300781 12.253906 -7.148438 12.203125 -7.015625 C 12.148438 -6.890625 12.070312 -6.75 11.96875 -6.59375 C 11.5625 -5.894531 11.160156 -5.171875 10.765625 -4.421875 C 10.378906 -3.679688 10.054688 -2.925781 9.796875 -2.15625 C 10.453125 -2.695312 11.101562 -3.238281 11.75 -3.78125 C 12.40625 -4.332031 13.082031 -4.875 13.78125 -5.40625 C 14.03125 -5.613281 14.273438 -5.804688 14.515625 -5.984375 C 14.765625 -6.160156 15.015625 -6.347656 15.265625 -6.546875 C 15.359375 -6.640625 15.5 -6.757812 15.6875 -6.90625 C 15.875 -7.0625 16.050781 -7.148438 16.21875 -7.171875 C 16.394531 -7.203125 16.488281 -7.066406 16.5 -6.765625 Z M 4.328125 7.921875 C 4.765625 6.960938 5.15625 5.988281 5.5 5 C 5.851562 4.019531 6.203125 3.039062 6.546875 2.0625 C 5.953125 2.613281 5.382812 3.179688 4.84375 3.765625 C 4.3125 4.347656 3.800781 4.960938 3.3125 5.609375 C 2.84375 6.210938 2.359375 6.847656 1.859375 7.515625 C 1.359375 8.179688 1.003906 8.90625 0.796875 9.6875 C 0.734375 9.894531 0.710938 10.191406 0.734375 10.578125 C 0.753906 10.960938 0.847656 11.289062 1.015625 11.5625 C 1.191406 11.832031 1.46875 11.90625 1.84375 11.78125 C 2.144531 11.6875 2.398438 11.46875 2.609375 11.125 C 2.828125 10.78125 3.015625 10.488281 3.171875 10.25 C 3.566406 9.59375 3.894531 8.953125 4.15625 8.328125 C 4.15625 8.328125 4.160156 8.316406 4.171875 8.296875 C 4.179688 8.273438 4.1875 8.253906 4.1875 8.234375 C 4.1875 8.234375 4.1875 8.226562 4.1875 8.21875 C 4.1875 8.207031 4.195312 8.203125 4.21875 8.203125 L 4.21875 8.1875 L 4.328125 7.953125 Z M 5.96875 7.53125 C 5.894531 7.664062 5.828125 7.816406 5.765625 7.984375 C 5.710938 8.148438 5.660156 8.3125 5.609375 8.46875 L 5.859375 8.015625 C 6.015625 7.742188 6.140625 7.484375 6.234375 7.234375 C 6.328125 6.984375 6.410156 6.734375 6.484375 6.484375 C 6.390625 6.648438 6.296875 6.820312 6.203125 7 C 6.109375 7.1875 6.03125 7.363281 5.96875 7.53125 Z M 6.9375 4.4375 C 6.976562 4.363281 6.992188 4.285156 6.984375 4.203125 C 6.972656 4.117188 6.957031 4.039062 6.9375 3.96875 C 6.976562 4.113281 6.953125 4.285156 6.859375 4.484375 C 6.773438 4.679688 6.707031 4.847656 6.65625 4.984375 C 6.59375 5.054688 6.546875 5.160156 6.515625 5.296875 C 6.492188 5.429688 6.460938 5.5625 6.421875 5.6875 Z M 6.03125 6.859375 C 6.070312 6.816406 6.109375 6.757812 6.140625 6.6875 Z M 6.03125 6.859375 "/></g></g></g><g style="fill:#15399a;fill-opacity:1;"><g transform="translate(38.474922, 29.415995)"><path style="stroke:none" d=""/></g></g></g></g></g></svg>